<?xml version="1.0" encoding="UTF-8"?>
<svg version="1.1" xmlns="http://www.w3.org/2000/svg" width="1024" height="1024">
<path d="M0 0 C0.66 0 1.32 0 2 0 C2.29543701 0.54599854 2.59087402 1.09199707 2.89526367 1.65454102 C9.15895426 13.21707593 15.50230306 24.72870652 21.99414062 36.16479492 C25.4832382 42.31168457 28.944344 48.47330802 32.38671875 54.64648438 C37.18261268 63.24476276 42.01612623 71.81019668 47.04077148 80.27685547 C56.96857507 97.04159983 66.49806179 114.04892733 75.9934082 131.06103516 C79.60229447 137.52196476 83.25188818 143.95756878 86.9375 150.375 C91.49545834 158.31137139 95.94838261 166.30221463 100.375 174.3125 C105.72150201 183.98063286 111.20177762 193.55721589 116.80029297 203.08129883 C121.56754347 211.2089712 126.17373172 219.42003149 130.75463867 227.65380859 C134.70688668 234.73934554 138.76005056 241.75790305 142.875 248.75 C148.79871202 258.82824211 154.47571714 269.02770365 160.10009766 279.27441406 C168.69639122 294.93413746 177.53277407 310.45525769 186.41552734 325.95385742 C190.28288035 332.71382876 194.08315231 339.50995779 197.875 346.3125 C203.04612702 355.58393276 208.3433372 364.77276558 213.71875 373.92700195 C220.31511607 385.18988662 226.66311131 396.5895252 233 408 C233.02710123 405.4374282 233.04688771 402.87514635 233.0625 400.3125 C233.07087891 399.59126953 233.07925781 398.87003906 233.08789062 398.12695312 C233.11415088 393.89828746 233.11415088 393.89828746 232.46679688 389.73556519 C231.86036239 386.18168306 232.16423222 382.81237601 232.43359375 379.24267578 C232.98871416 370.43495021 233.10238071 361.64721535 233.09765625 352.82373047 C233.0973472 352.13152979 233.09703815 351.43932911 233.09671974 350.72615266 C233.09299152 346.29492059 233.08142406 341.86372877 233.06846237 337.43251562 C233.05835251 333.50662084 233.05494683 329.58072067 233.05102539 325.65481567 C233.04002731 315.72819733 233.02041218 305.80160274 233 295.875 C232.97792609 285.09134703 232.95743092 274.30770274 232.94658184 263.52403176 C232.94159721 258.85862234 232.93173842 254.19325618 232.91815186 249.52786422 C232.91072438 246.64342303 232.90738363 243.75898788 232.9051857 240.87453842 C232.90240562 238.89130655 232.89460407 236.90808374 232.88668823 234.92486572 C232.88661774 233.75613922 232.88654724 232.58741272 232.88647461 231.38327026 C232.884254 230.36171278 232.88203339 229.3401553 232.87974548 228.28764153 C233 226 233 226 234 225 C235.4271362 224.90229799 236.8590743 224.87368305 238.28955078 224.87301636 C239.21503723 224.87019653 240.14052368 224.86737671 241.09405518 224.86447144 C242.62917755 224.86750778 242.62917755 224.86750778 244.1953125 224.87060547 C245.266745 224.86885315 246.33817749 224.86710083 247.44207764 224.86529541 C251.00306797 224.86087447 254.56400911 224.86381574 258.125 224.8671875 C260.58740244 224.86651453 263.04980482 224.86554456 265.51220703 224.86428833 C270.68067048 224.86281103 275.84911668 224.86496695 281.01757812 224.86962891 C287.65940727 224.8753262 294.30119602 224.87204737 300.94302368 224.86605644 C306.03003242 224.8624517 311.1170315 224.86358901 316.20404053 224.86618423 C318.6537883 224.86685375 321.10353693 224.86602425 323.55328369 224.86370468 C326.9704421 224.86117958 330.38753407 224.86501674 333.8046875 224.87060547 C334.82810242 224.86858124 335.85151733 224.86655701 336.90594482 224.86447144 C337.83143127 224.86729126 338.75691772 224.87011108 339.71044922 224.87301636 C340.51940643 224.87339338 341.32836365 224.87377041 342.16183472 224.87415886 C344 225 344 225 345 226 C345.09721248 227.66810152 345.1237154 229.34035321 345.12304783 231.01128483 C345.12503888 232.10357869 345.12702993 233.19587256 345.12908131 234.32126623 C345.12616847 235.53622021 345.12325563 236.75117418 345.12025452 238.00294495 C345.12110894 239.28195126 345.12196337 240.56095757 345.12284368 241.87872165 C345.12509105 245.44516609 345.12106408 249.01158077 345.11606562 252.57802141 C345.11176475 256.41784885 345.11320728 260.25767449 345.1139679 264.09750366 C345.11449336 270.75569115 345.1113442 277.41386888 345.10573006 284.07205391 C345.09761812 293.6987836 345.09500015 303.32550855 345.09374207 312.95224129 C345.09155106 328.56931914 345.08488967 344.18639178 345.07543945 359.8034668 C345.06626658 374.9779457 345.05918514 390.15242319 345.05493164 405.3269043 C345.05466892 406.26157119 345.05440619 407.19623808 345.05413551 408.15922821 C345.05283051 412.84797187 345.05156679 417.53671554 345.05032361 422.22545922 C345.03994949 461.15030979 345.02232986 500.07515455 345 539 C322.81727565 539.56179554 300.6357305 539.98440089 278.44732475 540.24349213 C268.14328489 540.36702137 257.84367503 540.53524211 247.54248047 540.81054688 C238.55859233 541.05053051 229.57791143 541.20476221 220.59090722 541.25812387 C215.83453567 541.28930777 211.08733355 541.36194356 206.33391953 541.53752136 C177.46545945 542.56341221 177.46545945 542.56341221 170.05871201 536.65286827 C165.29732785 530.9898114 162.46055178 524.77046636 160.03141022 517.83024406 C158.65093814 514.04215583 156.78614072 510.81339671 154.7109375 507.36328125 C153.01547312 504.29722038 151.3280999 501.22690467 149.64453125 498.15429688 C149.08894531 497.15076172 148.53335937 496.14722656 147.9609375 495.11328125 C147.48446777 494.24485596 147.00799805 493.37643066 146.51708984 492.48168945 C146.0164502 491.66273193 145.51581055 490.84377441 145 490 C144.47288296 489.1362164 143.94576591 488.2724328 143.40267563 487.38247395 C140.66187822 484.66472115 139.1219544 484.40900771 135.32757115 484.35459346 C134.57270571 484.36915766 133.81784026 484.38372187 133.0401001 484.39872742 C132.23222258 484.39445529 131.42434507 484.39018317 130.59198642 484.38578159 C127.88140055 484.37753709 125.17235764 484.40505959 122.46191406 484.43237305 C120.52046241 484.43378321 118.57900808 484.43299217 116.63755798 484.43016052 C111.36293689 484.42872371 106.08888228 484.45815659 100.81439304 484.49303031 C95.30376099 484.52424958 89.7931165 484.52722106 84.28240967 484.53315735 C73.84533182 484.5487088 63.40851529 484.58975501 52.97155261 484.6399048 C41.09022341 484.69575767 29.20888185 484.72327458 17.32745409 484.74838197 C-7.11517558 484.8006696 -31.55757316 484.88863731 -56 485 C-55.35598183 481.55785916 -54.57085022 478.79565244 -52.953125 475.68359375 C-52.52692871 474.85126221 -52.10073242 474.01893066 -51.66162109 473.16137695 C-51.19578613 472.26249756 -50.72995117 471.36361816 -50.25 470.4375 C-45.77087399 461.64511399 -41.50776054 452.77279168 -37.375 443.8125 C-36.82529541 442.62164795 -36.27559082 441.4307959 -35.70922852 440.20385742 C-34.63570706 437.87711949 -33.56253498 435.55022032 -32.48974609 433.22314453 C-27.54548803 422.5259805 -22.55553835 411.84357249 -17.15454102 401.36767578 C-15.07263917 397.29348195 -13.19793392 393.17165666 -11.40625 388.9609375 C-10.94589355 387.91389648 -10.48553711 386.86685547 -10.01123047 385.78808594 C-9.10431238 383.71868988 -8.22693857 381.63602946 -7.38330078 379.54003906 C-4.2870413 372.59262254 -4.2870413 372.59262254 -0.5769043 370.88427734 C4.30420176 369.83155146 8.75562524 369.98046851 13.66796875 370.703125 C21.369594 371.68356641 29.17434952 370.90311267 36.859375 370.12109375 C40 370 40 370 43.2434082 370.48632812 C46.96880876 370.99573495 50.48870839 371.11378237 54.24609375 371.09765625 C54.90207047 371.0962413 55.55804718 371.09482635 56.23390198 371.09336853 C58.30181702 371.08783031 60.36961842 371.07529002 62.4375 371.0625 C63.85090988 371.05747699 65.26432148 371.0529155 66.67773438 371.04882812 C70.11852568 371.03788126 73.55925172 371.02066038 77 371 C76.60820557 370.28714844 76.21641113 369.57429688 75.81274414 368.83984375 C71.00123063 360.05752031 71.00123063 360.05752031 69.05859375 356.1875 C68.25615234 354.6096875 68.25615234 354.6096875 67.4375 353 C66.89996094 351.9275 66.36242187 350.855 65.80859375 349.75 C63.84338489 346.76186386 62.17638568 345.5637591 59 344 C59.21148682 343.43442383 59.42297363 342.86884766 59.64086914 342.28613281 C60.1198814 339.23686645 59.29025377 338.06900646 57.74609375 335.421875 C57.22829346 334.52041748 56.71049316 333.61895996 56.17700195 332.69018555 C55.60296631 331.71992432 55.02893066 330.74966309 54.4375 329.75 C53.85121826 328.73655518 53.26493652 327.72311035 52.66088867 326.67895508 C50.78630574 323.44524358 48.89444653 320.22210797 47 317 C45.78832635 314.92621119 44.57737603 312.85199957 43.3671875 310.77734375 C41.59742837 307.74395483 39.82647887 304.71133047 38.04956055 301.68212891 C33.92281024 294.63543681 29.91119236 287.53314003 26.01879883 280.35424805 C23.8716458 276.41715929 23.8716458 276.41715929 21 273 C20.07513425 271.24286359 19.19353659 269.46280459 18.3359375 267.671875 C15.06206672 261.01268252 11.40065675 254.63472227 7.625 248.25 C6.98433594 247.15945313 6.34367187 246.06890625 5.68359375 244.9453125 C4.12584633 242.2948169 2.56462294 239.64644061 1 237 C-1.8587319 240.41212266 -4.15278211 243.82237755 -6.28515625 247.7265625 C-6.89302979 248.83193359 -7.50090332 249.93730469 -8.12719727 251.07617188 C-8.44310822 251.6555249 -8.75901917 252.23487793 -9.08450317 252.83178711 C-10.74429487 255.87510974 -12.41942226 258.90996999 -14.09375 261.9453125 C-14.42689713 262.5500238 -14.76004425 263.15473511 -15.10328674 263.777771 C-18.42032876 269.78669336 -21.84861852 275.72769351 -25.32250977 281.64697266 C-30.35099195 290.23801349 -35.01808568 299.02728787 -39.74243164 307.7878418 C-44.69575899 316.96486774 -49.68946884 326.10409622 -54.91748047 335.12792969 C-63.47845938 349.93297846 -71.85602779 364.84059035 -80.19580078 379.77099609 C-83.23118255 385.20346691 -86.27186385 390.63296892 -89.3125 396.0625 C-89.90272949 397.11663086 -90.49295898 398.17076172 -91.10107422 399.25683594 C-94.57320157 405.45671356 -98.04991738 411.65395162 -101.53955078 417.84399414 C-103.76008566 421.78572124 -105.96748044 425.73454254 -108.16796875 429.6875 C-115.78863705 443.36366692 -123.58255259 456.92581983 -131.49902344 470.43261719 C-136.20548936 478.48290925 -140.8111894 486.58599589 -145.25390625 494.78515625 C-147.57150574 499.0522354 -149.91068671 503.30729678 -152.25 507.5625 C-152.71672119 508.41392578 -153.18344238 509.26535156 -153.66430664 510.14257812 C-156.068153 514.52082194 -158.49451809 518.88375023 -160.96875 523.22265625 C-161.43635742 524.04757568 -161.90396484 524.87249512 -162.38574219 525.72241211 C-163.28077103 527.2986431 -164.18226171 528.87122602 -165.09082031 530.43969727 C-166.12126247 532.26007554 -167.0696475 534.12649197 -168 536 C-167.67 536.66 -167.34 537.32 -167 538 C-170.0842014 539.02806713 -172.17897737 539.12329974 -175.40995789 539.12025452 C-177.09476761 539.12231651 -177.09476761 539.12231651 -178.81361389 539.12442017 C-180.04647629 539.12082489 -181.27933868 539.11722961 -182.54956055 539.11352539 C-184.49605499 539.11374443 -184.49605499 539.11374443 -186.48187256 539.1139679 C-190.04151255 539.11425514 -193.60111893 539.10837019 -197.1607511 539.10139394 C-200.88034378 539.09514826 -204.59993719 539.09455564 -208.3195343 539.09336853 C-215.36367773 539.0902588 -222.40780566 539.08205023 -229.45194227 539.07201904 C-237.47120415 539.06084679 -245.49046678 539.05534465 -253.50973451 539.05032361 C-270.00649875 539.03986733 -286.5032474 539.02227481 -303 539 C-301.73848656 536.62163673 -300.47549738 534.24407664 -299.21166992 531.86694336 C-298.85848442 531.20070702 -298.50529892 530.53447067 -298.14141083 529.84804535 C-295.02426176 523.98964366 -291.70251691 518.2669843 -288.3125 512.5625 C-282.86215425 503.30895188 -277.64682529 493.9526302 -272.57275391 484.48803711 C-268.99437232 477.81398329 -265.337031 471.19373896 -261.5378418 464.64257812 C-259.61534579 461.52301521 -259.61534579 461.52301521 -259 458 C-258.525625 457.566875 -258.05125 457.13375 -257.5625 456.6875 C-255.78729504 455.07441673 -255.78729504 455.07441673 -255.5625 452.5625 C-255 450 -255 450 -253.25390625 448.34765625 C-250.23388322 445.20201701 -248.42478157 441.70014441 -246.375 437.875 C-245.48321681 436.24080689 -244.59128577 434.60669444 -243.69921875 432.97265625 C-243.02318604 431.72572998 -243.02318604 431.72572998 -242.33349609 430.45361328 C-240.30811276 426.72693761 -238.24907855 423.01924 -236.1875 419.3125 C-235.78031738 418.57894287 -235.37313477 417.84538574 -234.95361328 417.08959961 C-231.03772781 410.04446849 -227.06725076 403.03048868 -223.09619141 396.01635742 C-219.06678737 388.89602416 -215.05815641 381.76432245 -211.0625 374.625 C-210.48000488 373.5844043 -209.89750977 372.54380859 -209.29736328 371.47167969 C-206.38398644 366.26537481 -203.47361511 361.05740771 -200.56640625 355.84765625 C-193.7431082 343.62896671 -186.8485559 331.45324582 -179.89550781 319.30810547 C-170.57962654 303.03459477 -161.37976791 286.69696477 -152.2277832 270.33081055 C-148.35984501 263.41715894 -144.46823014 256.51735929 -140.5625 249.625 C-135.07361648 239.93689677 -129.66053309 230.2077518 -124.26538086 220.46728516 C-120.35083471 213.40678121 -116.38808199 206.37956912 -112.3203125 199.40625 C-110.89112465 196.9719124 -110.89112465 196.9719124 -110 194 C-109.01262524 192.65729048 -108.01070821 191.32523458 -107 190 C-104.65977381 186.19805409 -102.46332299 182.31438511 -100.25 178.4375 C-99.63511719 177.38369141 -99.02023437 176.32988281 -98.38671875 175.24414062 C-97.81050781 174.23416016 -97.23429688 173.22417969 -96.640625 172.18359375 C-96.10985352 171.26118896 -95.57908203 170.33878418 -95.03222656 169.38842773 C-93.65377891 166.92760452 -93.65377891 166.92760452 -95 164 C-94.01 164 -93.02 164 -92 164 C-91.67427002 163.39341553 -91.34854004 162.78683105 -91.01293945 162.16186523 C-83.38025878 147.96558509 -75.59590317 133.86784485 -67.625 119.85888672 C-64.90742443 115.07781551 -62.20447174 110.28849151 -59.5 105.5 C-58.41673638 103.58329393 -57.33340306 101.66662726 -56.25 99.75 C-55.71375 98.80125 -55.1775 97.8525 -54.625 96.875 C-49.75 88.25 -49.75 88.25 -48.12524414 85.37548828 C-47.04103266 83.45723038 -45.95688561 81.53893606 -44.87280273 79.62060547 C-42.17843007 74.85298522 -39.48297052 70.08598623 -36.78515625 65.3203125 C-30.58220149 54.35975166 -24.40874842 43.38324584 -18.26147461 32.39135742 C-12.20907962 21.57458239 -6.10886622 10.78495915 0 0 Z M0 19 C-1.3757446 20.85396832 -1.3757446 20.85396832 -2.73046875 23.30078125 C-3.27840088 24.24445557 -3.82633301 25.18812988 -4.39086914 26.16040039 C-5.28020142 27.7206897 -5.28020142 27.7206897 -6.1875 29.3125 C-6.80681396 30.38685303 -7.42612793 31.46120605 -8.06420898 32.56811523 C-13.93122707 42.78620415 -19.64444898 53.08999097 -25.34375 63.40234375 C-28.71437369 69.49696358 -32.12813563 75.5661145 -35.5625 81.625 C-40.08874837 89.61049617 -44.58530965 97.61189556 -49.0625 105.625 C-53.78707653 114.07868672 -58.56344973 122.50011618 -63.38647461 130.89794922 C-67.87106688 138.72837798 -72.23723038 146.62345229 -76.60375977 154.52001953 C-80.29567981 161.1919855 -84.02471487 167.83006855 -87.9375 174.375 C-93.15016037 183.10291851 -98.01059816 192.02356412 -102.90380859 200.93261719 C-107.58591238 209.45467933 -112.33295673 217.93666836 -117.13378906 226.39257812 C-121.32218857 233.77840647 -125.44859343 241.19746049 -129.5625 248.625 C-134.48229109 257.50364639 -139.45691753 266.34665882 -144.51196289 275.14892578 C-148.38837542 281.90656955 -152.20153463 288.69827749 -156 295.5 C-160.2946701 303.18927016 -164.61780539 310.86026423 -169 318.5 C-173.96472733 327.15699994 -178.85324939 335.85501471 -183.72094727 344.56689453 C-187.60454984 351.51548934 -191.51240193 358.44977327 -195.4375 365.375 C-200.19201437 373.76634676 -204.88856146 382.18853203 -209.5625 390.625 C-214.98686406 400.41275484 -220.48790097 410.15208787 -226.0546875 419.859375 C-234.8459699 435.18987013 -243.46393406 450.61339418 -251.98510742 466.09521484 C-256.31298674 473.95617171 -260.67157976 481.79901034 -265.0625 489.625 C-265.61945557 490.61878662 -266.17641113 491.61257324 -266.75024414 492.63647461 C-269.18651219 496.9835274 -271.62331799 501.33026908 -274.06494141 505.67431641 C-275.83082787 508.81684225 -277.59225808 511.9618324 -279.3510437 515.1083374 C-280.0296112 516.32050855 -280.7097084 517.53182474 -281.39138794 518.74224854 C-282.33514253 520.41842106 -283.27318192 522.09780764 -284.2109375 523.77734375 C-284.75024902 524.73890381 -285.28956055 525.70046387 -285.84521484 526.69116211 C-287.14910903 528.86786964 -287.14910903 528.86786964 -287 531 C-272.63085387 531.07970167 -258.26241353 531.1073244 -243.8930645 531.07515812 C-237.2206382 531.06173987 -230.54928292 531.06497048 -223.87695312 531.10620117 C-217.43800199 531.14537805 -211.00042765 531.14088585 -204.56146622 531.10607719 C-202.10467182 531.10047704 -199.64778952 531.11062962 -197.19112778 531.13676643 C-193.74939464 531.17069598 -190.31223004 531.1486804 -186.87060547 531.11352539 C-185.85424515 531.13653214 -184.83788483 531.15953888 -183.79072571 531.1832428 C-178.36963526 531.08069403 -178.36963526 531.08069403 -174.07829666 528.06298637 C-172.52359565 525.76689565 -171.235783 523.48001466 -170 521 C-169.2331203 519.6610386 -168.46189324 518.32454331 -167.68359375 516.9921875 C-166.93129725 515.62176097 -166.18274261 514.2492752 -165.4375 512.875 C-164.56855659 511.29250268 -163.6987202 509.71049546 -162.828125 508.12890625 C-162.14266602 506.88197998 -162.14266602 506.88197998 -161.44335938 505.60986328 C-158.88992575 500.99277846 -156.28761527 496.40340745 -153.6875 491.8125 C-153.13876221 490.8426416 -152.59002441 489.8727832 -152.0246582 488.87353516 C-149.81598144 484.97064994 -147.6058585 481.06858777 -145.39404297 477.16748047 C-138.79819943 465.53385067 -132.24455541 453.87793331 -125.75 442.1875 C-125.41736145 441.58893188 -125.0847229 440.99036377 -124.74200439 440.37365723 C-121.28096086 434.23470344 -121.28096086 434.23470344 -118 428 C-118.33 427.34 -118.66 426.68 -119 426 C-118.01 425.67 -117.02 425.34 -116 425 C-114.40270405 422.44190174 -112.96614111 419.91223186 -111.5625 417.25 C-110.66938027 415.59819436 -109.77478832 413.94718408 -108.87890625 412.296875 C-108.40984863 411.42869141 -107.94079102 410.56050781 -107.45751953 409.66601562 C-105.03758164 405.23959657 -102.51631034 400.87211448 -100 396.5 C-95.92518248 389.39472655 -91.90093943 382.2646737 -87.93408203 375.09863281 C-80.07579075 360.90321096 -72.16593539 346.73517442 -64.09375 332.66015625 C-55.80906465 318.19894209 -47.68139651 303.65019357 -39.60083008 289.07421875 C-35.47368373 281.63565191 -31.31535116 274.2156392 -27.125 266.8125 C-26.32437134 265.39747192 -26.32437134 265.39747192 -25.50756836 263.95385742 C-23.14397868 259.77898063 -20.77633925 255.60646771 -18.40234375 251.4375 C-14.5120232 244.58784193 -10.81414072 237.70855357 -7.34375 230.6328125 C-5.02960948 226.0987116 -2.61515294 221.61515294 1 218 C6.02158975 226.85118597 10.96032201 235.74223679 15.8125 244.6875 C23.24076047 258.35820562 30.94284002 271.86569812 38.875 285.25 C43.61743185 293.25405961 48.15296738 301.36994961 52.68481445 309.49462891 C56.91827271 317.08127035 61.20159792 324.63717706 65.52416992 332.17333984 C68.71062273 337.73227715 71.86686921 343.30737964 75.00878906 348.89160156 C79.71173053 357.24965053 84.44877407 365.57253819 89.46166992 373.74951172 C92 377.90380128 92 377.90380128 92 379 C62.96 379.33 33.92 379.66 4 380 C0.18396521 386.80386059 0.18396521 386.80386059 -3.38085938 393.70825195 C-3.77942139 394.51909241 -4.1779834 395.32993286 -4.58862305 396.16534424 C-5.00281494 397.01441345 -5.41700684 397.86348267 -5.84375 398.73828125 C-6.29016846 399.64930603 -6.73658691 400.56033081 -7.1965332 401.4989624 C-8.63391905 404.43540226 -10.06724793 407.37379676 -11.5 410.3125 C-11.98944092 411.31433319 -12.47888184 412.31616638 -12.9831543 413.34835815 C-19.45165723 426.59256232 -25.84109536 439.86610567 -31.96679688 453.27270508 C-34.79542705 459.46108587 -37.75993849 465.55233317 -40.88085938 471.59936523 C-42.14084239 473.86066954 -42.14084239 473.86066954 -42 476 C19.71 476 81.42 476 145 476 C145 475.34 145 474.68 145 474 C145.66 474 146.32 474 147 474 C147.23976563 474.83402344 147.47953125 475.66804688 147.7265625 476.52734375 C149.19797786 480.53988442 151.15924222 483.92510097 153.375 487.5625 C154.27741231 489.06818979 155.17838789 490.57474134 156.078125 492.08203125 C156.55314453 492.87689941 157.02816406 493.67176758 157.51757812 494.49072266 C160.59656085 499.70247899 163.56238543 504.98015622 166.53662109 510.25219727 C167.45965201 511.87861932 168.39969232 513.49553149 169.35825348 515.10126972 C171 518 171 518 172.51293182 521.30608654 C175.89317389 528.19577569 175.89317389 528.19577569 182.21824646 532.17856789 C186.27843127 532.60466 190.15679441 532.61188495 194.22851562 532.47583008 C195.79140553 532.47184308 197.35431881 532.47359111 198.91719818 532.48057842 C203.08733612 532.48350289 207.25258278 532.40842277 211.42156982 532.31664276 C215.33946366 532.24235638 219.25619487 532.23911066 223.17480469 532.2298584 C234.61717958 532.16176251 246.05865239 531.98026471 257.5 531.8125 C295.8625 531.4103125 295.8625 531.4103125 335 531 C335 432.99 335 334.98 335 234 C304.31 234 273.62 234 242 234 C242 302.31 242 370.62 242 441 C235.25050641 429.75084402 235.25050641 429.75084402 232.9296875 425.67578125 C232.42566406 424.79212891 231.92164063 423.90847656 231.40234375 422.99804688 C230.64630859 421.66870117 230.64630859 421.66870117 229.875 420.3125 C229.36324219 419.41466797 228.85148438 418.51683594 228.32421875 417.59179688 C227.33041615 415.84817148 226.33707048 414.10428555 225.34423828 412.36010742 C224.18492464 410.32467607 223.02293754 408.29081639 221.859375 406.2578125 C220.61313312 404.07427106 219.37623072 401.8853743 218.1484375 399.69140625 C217.56320312 398.65886719 216.97796875 397.62632812 216.375 396.5625 C215.78460937 395.51191406 215.19421875 394.46132813 214.5859375 393.37890625 C214.06257813 392.59386719 213.53921875 391.80882812 213 391 C212.34 391 211.68 391 211 391 C210.89075195 390.11368896 210.78150391 389.22737793 210.66894531 388.31420898 C209.99294385 384.96504115 209.04765242 382.87920706 207.296875 379.97265625 C206.73532715 379.0276123 206.1737793 378.08256836 205.59521484 377.10888672 C204.98629395 376.1035791 204.37737305 375.09827148 203.75 374.0625 C202.4648159 371.90052961 201.18099392 369.737749 199.8984375 367.57421875 C198.91955566 365.92945557 198.91955566 365.92945557 197.92089844 364.25146484 C195.01148877 359.3267676 192.18472446 354.35708151 189.375 349.375 C188.84100586 348.42890869 188.30701172 347.48281738 187.75683594 346.50805664 C183.60786585 339.13148005 179.55338325 331.70537046 175.5168457 324.2668457 C170.35076185 314.76534973 165.01877989 305.36010396 159.67626953 295.95703125 C157.93266047 292.88120938 156.197695 289.80064428 154.46484375 286.71875 C153.88468506 285.68806396 153.30452637 284.65737793 152.70678711 283.59545898 C151.60341857 281.63477419 150.5012822 279.67339525 149.40063477 277.71118164 C146.73802529 272.98631742 144.01392645 268.33017699 141.078125 263.76928711 C139.93495154 261.89325041 138.96924933 259.97066675 138 258 C136.90705727 256.09767399 135.8017061 254.20245048 134.6875 252.3125 C131.71701006 247.24775251 128.82156186 242.14902532 126 237 C125.34 237 124.68 237 124 237 C124 236.01 124 235.02 124 234 C123.10162843 231.92389194 123.10162843 231.92389194 121.83203125 229.703125 C121.12095215 228.40737549 121.12095215 228.40737549 120.39550781 227.08544922 C119.61191895 225.68190186 119.61191895 225.68190186 118.8125 224.25 C118.27077148 223.26918457 117.72904297 222.28836914 117.17089844 221.27783203 C115.45575145 218.18040873 113.72989709 215.089207 112 212 C111.47647949 211.06446289 110.95295898 210.12892578 110.41357422 209.16503906 C103.69499966 197.18262404 96.86864168 185.26151305 90.04074097 173.34118652 C85.83687141 166.00077385 81.66935733 158.64160334 77.55371094 151.2512207 C72.36990905 141.9440722 67.14954915 132.65774615 61.8125 123.4375 C61.27149658 122.48439941 60.73049316 121.53129883 60.1730957 120.54931641 C59.66866943 119.68612793 59.16424316 118.82293945 58.64453125 117.93359375 C57.98481323 116.7897522 57.98481323 116.7897522 57.31176758 115.62280273 C56.87888428 115.08727783 56.44600098 114.55175293 56 114 C55.01 114 54.02 114 53 114 C53.21599854 113.44344727 53.43199707 112.88689453 53.65454102 112.31347656 C54.131144 109.12175226 53.12591768 107.76285484 51.52734375 104.984375 C50.68296753 103.49671631 50.68296753 103.49671631 49.8215332 101.97900391 C49.19980225 100.91343262 48.57807129 99.84786133 47.9375 98.75 C47.30352295 97.64188965 46.6695459 96.5337793 46.01635742 95.39208984 C44.02447355 91.91988136 42.01460097 88.45906888 40 85 C39.38479492 83.9387793 38.76958984 82.87755859 38.13574219 81.78417969 C34.64938557 75.77054556 31.14235291 69.76927024 27.62548828 63.7734375 C19.91023678 50.60953586 12.3612404 37.36520221 5 24 C4.01 24 3.02 24 2 24 C2.66 23.34 3.32 22.68 4 22 C3.34 21.01 2.68 20.02 2 19 C1.34 19 0.68 19 0 19 Z M61 342 C62 344 62 344 62 344 Z " fill="#212121" transform="translate(479,230)"/>
<path d="M0 0 C0 35.64 0 71.28 0 108 C-36.96 108 -73.92 108 -112 108 C-112 72.36 -112 36.72 -112 0 C-100.57375 -0.185625 -89.1475 -0.37125 -77.375 -0.5625 C-73.85763184 -0.62381104 -70.34026367 -0.68512207 -66.71630859 -0.74829102 C-62.19067383 -0.81628418 -62.19067383 -0.81628418 -60.02749634 -0.8467865 C-58.61411974 -0.86810921 -57.20078329 -0.89229533 -55.7875061 -0.91941833 C-37.16742362 -1.27082825 -18.64010901 -0.49052918 0 0 Z M-103 8 C-103 38.03 -103 68.06 -103 99 C-98.69790618 100.07552346 -94.76899817 100.132816 -90.37597656 100.11352539 C-89.4933099 100.11364593 -88.61064323 100.11376646 -87.7012291 100.11389065 C-84.84766865 100.11314502 -81.99417374 100.10553269 -79.140625 100.09765625 C-77.37744173 100.09618575 -75.61425802 100.0951657 -73.85107422 100.09460449 C-67.31737615 100.08936416 -60.78368743 100.07540295 -54.25 100.0625 C-39.6475 100.041875 -25.045 100.02125 -10 100 C-10 69.64 -10 39.28 -10 8 C-10.99 8 -11.98 8 -13 8 C-30.66666667 8 -48.33333333 8 -66 8 C-66 8.66 -66 9.32 -66 10 C-66.66 9.34 -67.32 8.68 -68 8 C-70.76085062 7.6796478 -70.76085062 7.6796478 -73.875 7.75 C-74.92429687 7.74484375 -75.97359375 7.7396875 -77.0546875 7.734375 C-79.91599111 7.9924236 -81.57276909 8.5225551 -84 10 C-84 9.34 -84 8.68 -84 8 C-90.27 8 -96.54 8 -103 8 Z " fill="#1C1C1C" transform="translate(824,318)"/>
<path d="M0 0 C0.92548645 -0.00281982 1.8509729 -0.00563965 2.80450439 -0.00854492 C4.33962677 -0.00550858 4.33962677 -0.00550858 5.90576172 -0.00241089 C6.97719421 -0.00416321 8.04862671 -0.00591553 9.15252686 -0.00772095 C12.71351719 -0.01214189 16.27445833 -0.00920062 19.83544922 -0.00582886 C22.29785166 -0.00650183 24.76025404 -0.00747179 27.22265625 -0.00872803 C32.3911197 -0.01020533 37.5595659 -0.0080494 42.72802734 -0.00338745 C49.36985649 0.00230985 56.01164524 -0.00096898 62.6534729 -0.00695992 C67.74048164 -0.01056465 72.82748072 -0.00942734 77.91448975 -0.00683212 C80.36423752 -0.00616261 82.81398615 -0.00699211 85.26373291 -0.00931168 C88.68089132 -0.01183677 92.09798329 -0.00799962 95.51513672 -0.00241089 C96.53855164 -0.00443512 97.56196655 -0.00645935 98.61639404 -0.00854492 C100.00462372 -0.00431519 100.00462372 -0.00431519 101.42089844 0 C102.22985565 0.00037703 103.03881287 0.00075405 103.87228394 0.0011425 C105.71044922 0.12698364 105.71044922 0.12698364 106.71044922 1.12698364 C106.8076044 2.76902272 106.8341649 4.41527098 106.83349705 6.06018162 C106.8354881 7.1350585 106.83747914 8.20993539 106.83953053 9.3173843 C106.83661769 10.51288354 106.83370484 11.70838277 106.83070374 12.94010925 C106.83155816 14.1986978 106.83241259 15.45728636 106.8332929 16.75401396 C106.83554022 20.2634507 106.83151336 23.77285721 106.82651484 27.2822901 C106.82221391 31.06076728 106.82365651 34.83924262 106.82441711 38.61772156 C106.82494258 45.16950449 106.82179345 51.7212775 106.81617928 58.27305794 C106.80806729 67.74594219 106.80544937 77.21882162 106.80419128 86.69170897 C106.80200029 102.05921536 106.79533892 117.42671646 106.78588867 132.79421997 C106.77671578 147.72618585 106.76963435 162.65815029 106.76538086 177.59011841 C106.76511814 178.50985032 106.76485541 179.42958224 106.76458473 180.37718482 C106.76327973 184.99100812 106.76201601 189.60483143 106.76077282 194.21865475 C106.75039873 232.52143476 106.73277913 270.82420885 106.71044922 309.12698364 C106.05044922 309.45698364 105.39044922 309.78698364 104.71044922 310.12698364 C104.71044922 208.15698364 104.71044922 106.18698364 104.71044922 1.12698364 C69.07044922 1.12698364 33.43044922 1.12698364 -3.28955078 1.12698364 C-3.28955078 62.50698364 -3.28955078 123.88698364 -3.28955078 187.12698364 C-5.28955078 185.12698364 -5.28955078 185.12698364 -5.44970703 181.16995239 C-5.42705913 179.55129392 -5.39406727 177.93275518 -5.35205078 176.31448364 C-5.31734551 174.70390204 -5.2872721 173.09321286 -5.26220703 171.48245239 C-5.24424072 170.7672644 -5.22627441 170.05207642 -5.20776367 169.31521606 C-5.21572888 167.11206585 -5.21572888 167.11206585 -5.82176208 164.97505188 C-6.4126899 161.37726779 -6.12840878 157.98031267 -5.85595703 154.36965942 C-5.30083662 145.56193386 -5.18717007 136.77419899 -5.19189453 127.95071411 C-5.19220358 127.25851343 -5.19251263 126.56631276 -5.19283104 125.8531363 C-5.19655926 121.42190423 -5.20812672 116.99071241 -5.22108841 112.55949926 C-5.23119827 108.63360449 -5.23460395 104.70770431 -5.23852539 100.78179932 C-5.24952347 90.85518097 -5.26913861 80.92858639 -5.28955078 71.00198364 C-5.31162469 60.21833067 -5.33211986 49.43468638 -5.34296894 38.6510154 C-5.34795357 33.98560598 -5.35781236 29.32023982 -5.37139893 24.65484786 C-5.3788264 21.77040667 -5.38216715 18.88597152 -5.38436508 16.00152206 C-5.38714516 14.0182902 -5.39494671 12.03506739 -5.40286255 10.05184937 C-5.40293304 8.88312286 -5.40300354 7.71439636 -5.40307617 6.51025391 C-5.40640709 4.97791768 -5.40640709 4.97791768 -5.4098053 3.41462517 C-5.20065755 -0.56406182 -3.53777844 0.00164883 0 0 Z " fill="#515252" transform="translate(717.28955078125,454.8730163574219)"/>
<path d="M0 0 C2.57473469 -0.3719368 2.57473469 -0.3719368 5.90144348 -0.36749268 C7.15909012 -0.37306183 8.41673676 -0.37863098 9.7124939 -0.3843689 C11.11407657 -0.3753454 12.51565737 -0.36602759 13.91723633 -0.35644531 C15.3872337 -0.35723583 16.85723087 -0.35933199 18.32722473 -0.36264038 C22.32741356 -0.36778652 26.3273463 -0.3542133 30.32749391 -0.33711338 C34.51053391 -0.32210112 38.69357025 -0.3232519 42.87663269 -0.32244873 C49.90551129 -0.31875247 56.93429245 -0.30377024 63.96313477 -0.28125 C72.98218676 -0.25241186 82.00116009 -0.24203023 91.02025318 -0.2375679 C98.77272367 -0.23358429 106.5251771 -0.22107993 114.27763534 -0.20722103 C116.76945377 -0.20312513 119.26127159 -0.20019782 121.75309181 -0.19742584 C125.67236208 -0.19252338 129.591585 -0.18230397 133.51083183 -0.16798782 C134.94874265 -0.16347407 136.38665982 -0.16062835 137.82457733 -0.15958023 C139.78892966 -0.15782744 141.75327246 -0.14930105 143.71760559 -0.14044189 C144.81655057 -0.13746723 145.91549555 -0.13449257 147.04774189 -0.13142776 C149.80811671 -0.0085422 152.31366528 0.37381663 155 1 C155 1.66 155 2.32 155 3 C103.19 3 51.38 3 -2 3 C-1.34 2.01 -0.68 1.02 0 0 Z " fill="#312F30" transform="translate(659,760)"/>
<path d="M0 0 C0.95589932 0.00276538 1.91179865 0.00553076 2.89666462 0.00837994 C4.54361065 0.00219395 4.54361065 0.00219395 6.22382832 -0.00411701 C7.4286385 0.00666882 8.63344868 0.01745464 9.87476826 0.02856731 C11.77737164 0.02791019 11.77737164 0.02791019 13.71841145 0.0272398 C17.19758886 0.02637812 20.67645676 0.04403147 24.15556216 0.06496167 C27.791059 0.08369988 31.42656273 0.08547665 35.06210041 0.0890379 C41.94693307 0.09836679 48.83162303 0.12299191 55.71639282 0.15308636 C63.55426168 0.18660418 71.39213731 0.20310978 79.23005998 0.21817267 C95.35365634 0.2495408 111.47710913 0.3023176 127.60059834 0.36914349 C127.60059834 1.35914349 127.60059834 2.34914349 127.60059834 3.36914349 C83.71059834 3.36914349 39.82059834 3.36914349 -5.39940166 3.36914349 C-2.39940166 0.36914349 -2.39940166 0.36914349 0 0 Z " fill="#383838" transform="translate(181.3994016647339,765.630856513977)"/>
<path d="M0 0 C29.7 0 59.4 0 90 0 C90 30.69 90 61.38 90 93 C89.67 93 89.34 93 89 93 C88.67 63.63 88.34 34.26 88 4 C84.2311658 2.1155829 82.31987525 1.66570538 78.25 1.375 C77.26515625 1.30023438 76.2803125 1.22546875 75.265625 1.1484375 C74.51796875 1.09945313 73.7703125 1.05046875 73 1 C72.67 1.66 72.34 2.32 72 3 C72 2.34 72 1.68 72 1 C70.741875 1.350625 69.48375 1.70125 68.1875 2.0625 C65.05283612 2.93609485 64.21717892 3.07239297 61 2 C59.14772748 1.90642308 57.2921282 1.87006091 55.4375 1.875 C53.98150391 1.87113281 53.98150391 1.87113281 52.49609375 1.8671875 C50.00047047 1.83349047 50.00047047 1.83349047 48 3 C47.29875 2.855625 46.5975 2.71125 45.875 2.5625 C43.36710566 2.07182502 41.34383569 1.95865332 38.8125 2 C35 2 35 2 33 1 C33 1.66 33 2.32 33 3 C32.01 2.67 31.02 2.34 30 2 C28.18945873 1.90601771 26.37547219 1.87008013 24.5625 1.875 C23.61503906 1.87242187 22.66757812 1.86984375 21.69140625 1.8671875 C19.29859541 1.98526525 17.28663847 2.31887365 15 3 C15 2.34 15 1.68 15 1 C14.08476563 1.09539062 13.16953125 1.19078125 12.2265625 1.2890625 C10.44378906 1.45535156 10.44378906 1.45535156 8.625 1.625 C7.44164062 1.74101562 6.25828125 1.85703125 5.0390625 1.9765625 C4.03617188 1.98429687 3.03328125 1.99203125 2 2 C1.34 1.34 0.68 0.68 0 0 Z " fill="#545353" transform="translate(725,325)"/>
<path d="M0 0 C-0.33 0.66 -0.66 1.32 -1 2 C-2.09580887 2.01030746 -3.19161774 2.02061493 -4.32063293 2.03123474 C-14.63577215 2.12889153 -24.95085 2.23161829 -35.26588917 2.33933926 C-40.56924665 2.39455896 -45.87260966 2.44797751 -51.17602539 2.49731445 C-56.29185025 2.54497196 -61.40760746 2.59731539 -66.52335167 2.65294075 C-68.4774069 2.673358 -70.43148068 2.69207212 -72.38556862 2.70907402 C-75.11754703 2.73313189 -77.84939744 2.76318469 -80.58129883 2.79467773 C-81.39337799 2.8004332 -82.20545715 2.80618866 -83.04214478 2.81211853 C-86.27915011 2.85467528 -88.90772312 2.96924104 -92 4 C-91.67 2.68 -91.34 1.36 -91 0 C-79.7257671 -0.1538121 -68.45147565 -0.30199343 -57.17707443 -0.4429636 C-51.94206436 -0.50859732 -46.70709446 -0.57617882 -41.47216797 -0.64819336 C-36.42127733 -0.71760484 -31.37034529 -0.78192385 -26.31934357 -0.84269524 C-24.39119355 -0.86679222 -22.46306566 -0.89273183 -20.53496552 -0.92053413 C-17.8368221 -0.959127 -15.13867471 -0.99119955 -12.44042969 -1.02172852 C-11.64129654 -1.03467453 -10.84216339 -1.04762054 -10.01881409 -1.06095886 C-6.49402709 -1.09460183 -3.38971672 -0.95118629 0 0 Z " fill="#343333" transform="translate(572,608)"/>
<path d="M0 0 C6.72589693 0.73273999 13.43295366 0.29255939 20.15234375 -0.30078125 C24.78958854 -0.69497443 28.802418 -0.55003285 33.40234375 0.26171875 C36.07603152 0.34735288 38.72636067 0.30866582 41.40234375 0.26171875 C41.40234375 0.92171875 41.40234375 1.58171875 41.40234375 2.26171875 C35.03435123 2.28723979 28.66637209 2.30465696 22.29833984 2.31665039 C20.13557441 2.32165455 17.97281232 2.32845992 15.81005859 2.3371582 C12.68716605 2.34939637 9.56431854 2.35498639 6.44140625 2.359375 C5.48682526 2.36453629 4.53224426 2.36969757 3.54873657 2.37501526 C-2.55884679 2.37551658 -8.5333866 1.98736796 -14.59765625 1.26171875 C-14.59765625 0.93171875 -14.59765625 0.60171875 -14.59765625 0.26171875 C-9.45458885 -0.5798741 -5.14941571 -0.67778634 0 0 Z " fill="#464444" transform="translate(492.59765625,600.73828125)"/>
<path d="M0 0 C0.86931152 0.01047363 1.73862305 0.02094727 2.63427734 0.03173828 C3.57529297 0.03818359 4.51630859 0.04462891 5.48583984 0.05126953 C6.47068359 0.06802734 7.45552734 0.08478516 8.47021484 0.10205078 C9.46279297 0.11107422 10.45537109 0.12009766 11.47802734 0.12939453 C13.93399618 0.15300962 16.38948653 0.18594279 18.84521484 0.22705078 C18.51521484 0.88705078 18.18521484 1.54705078 17.84521484 2.22705078 C15.39575117 2.57057313 13.0572776 2.78704282 10.59521484 2.91455078 C9.59167969 2.98512695 9.59167969 2.98512695 8.56787109 3.05712891 C4.6690092 3.29075423 1.74271633 3.00655108 -2.15478516 2.22705078 C-2.48478516 11.13705078 -2.81478516 20.04705078 -3.15478516 29.22705078 C-3.48478516 29.22705078 -3.81478516 29.22705078 -4.15478516 29.22705078 C-4.21261556 24.76877152 -4.2483237 20.31058798 -4.27978516 15.85205078 C-4.29654297 14.58103516 -4.31330078 13.31001953 -4.33056641 12.00048828 C-4.33701172 10.78876953 -4.34345703 9.57705078 -4.35009766 8.32861328 C-4.36580811 6.64759521 -4.36580811 6.64759521 -4.38183594 4.93261719 C-4.10046596 1.57977629 -3.45353187 0.36390037 0 0 Z " fill="#151615" transform="translate(723.15478515625,461.77294921875)"/>
<path d="M0 0 C0.66 0 1.32 0 2 0 C2.495 1.98 2.495 1.98 3 4 C-17.295 3.505 -17.295 3.505 -38 3 C-37.67 2.34 -37.34 1.68 -37 1 C-18.685 1.495 -18.685 1.495 0 2 C0 1.34 0 0.68 0 0 Z " fill="#363434" transform="translate(624,704)"/>
<path d="M0 0 C1.25541557 3.76624671 0.37061958 5.37188934 -1 9 C-1.66 9 -2.32 9 -3 9 C-3.28875 9.928125 -3.5775 10.85625 -3.875 11.8125 C-5 15 -5 15 -7 18 C-7.66 18 -8.32 18 -9 18 C-7.65072455 13.46152802 -5.80840652 9.68067754 -3.375 5.625 C-2.74335938 4.56539062 -2.11171875 3.50578125 -1.4609375 2.4140625 C-0.73777344 1.21910156 -0.73777344 1.21910156 0 0 Z " fill="#282828" transform="translate(200,726)"/>
<path d="M0 0 C3.9069283 1.30230943 4.23708974 2.73116269 6.125 6.3125 C6.64320313 7.27800781 7.16140625 8.24351562 7.6953125 9.23828125 C8.78164401 11.53779136 9.51677111 13.51903214 10 16 C9.34 16 8.68 16 8 16 C5.5838358 13.21460964 3.94766508 10.16497179 2.3125 6.875 C1.65701172 5.57175781 1.65701172 5.57175781 0.98828125 4.2421875 C0 2 0 2 0 0 Z " fill="#2B2B2C" transform="translate(495,491)"/>
<path d="M0 0 C0.66 0 1.32 0 2 0 C2.8638129 1.45264038 3.71580454 2.9123163 4.5625 4.375 C5.27599609 5.59316406 5.27599609 5.59316406 6.00390625 6.8359375 C6.33261719 7.55007812 6.66132813 8.26421875 7 9 C6.67 9.66 6.34 10.32 6 11 C4 9 2 7 0 5 C-0.33 5.66 -0.66 6.32 -1 7 C-1.66 7 -2.32 7 -3 7 C-1.125 1.125 -1.125 1.125 0 0 Z " fill="#303030" transform="translate(479,230)"/>
<path d="M0 0 C0 0.99 0 1.98 0 3 C-5.28 3 -10.56 3 -16 3 C-15.67 2.34 -15.34 1.68 -15 1 C-9.96109772 -0.0283474 -5.11310018 -0.08970351 0 0 Z " fill="#383737" transform="translate(775,462)"/>
<path d="M0 0 C0.66 0 1.32 0 2 0 C0.52819836 3.92480438 -1.30190242 7.5508656 -3.29296875 11.23046875 C-3.52628906 11.81441406 -3.75960938 12.39835938 -4 13 C-3.67 13.66 -3.34 14.32 -3 15 C-3.99 15 -4.98 15 -6 15 C-7 12 -7 12 -5.63671875 9.08203125 C-4.99347656 8.00308594 -4.35023438 6.92414062 -3.6875 5.8125 C-3.05199219 4.72582031 -2.41648437 3.63914062 -1.76171875 2.51953125 C-1.18035156 1.68808594 -0.59898437 0.85664062 0 0 Z " fill="#2B2A2A" transform="translate(315,753)"/>
<path d="M0 0 C0.66 0 1.32 0 2 0 C0.57250019 3.79049707 -1.16236542 7.27122456 -3.125 10.8125 C-3.93324219 12.27623047 -3.93324219 12.27623047 -4.7578125 13.76953125 C-5.37269531 14.87361328 -5.37269531 14.87361328 -6 16 C-6.33 14.68 -6.66 13.36 -7 12 C-6.34 12 -5.68 12 -5 12 C-4.9175 11.319375 -4.835 10.63875 -4.75 9.9375 C-3.77667472 6.1253093 -2.04192545 3.35929671 0 0 Z " fill="#2B2B2B" transform="translate(240,669)"/>
<path d="M0 0 C0.66 0 1.32 0 2 0 C0.23570801 4.97209562 -2.3939166 9.43438061 -5 14 C-5.66 13.01 -6.32 12.02 -7 11 C-5.88368586 9.16136495 -4.75670373 7.32920277 -3.625 5.5 C-2.99851562 4.4790625 -2.37203125 3.458125 -1.7265625 2.40625 C-1.15679687 1.6121875 -0.58703125 0.818125 0 0 Z " fill="#292929" transform="translate(332,723)"/>
<path d="M0 0 C0.61875 0.474375 1.2375 0.94875 1.875 1.4375 C3.90705546 3.02417441 3.90705546 3.02417441 6 4 C6 5.98 6 7.96 6 10 C5.01 10.495 5.01 10.495 4 11 C0 4.5 0 4.5 0 0 Z " fill="#303131" transform="translate(716,661)"/>
<path d="M0 0 C0.66 0.33 1.32 0.66 2 1 C0.40109514 6.19644079 -1.74138003 11.06612142 -4 16 C-4.66 15.01 -5.32 14.02 -6 13 C-4.8828125 9.86328125 -4.8828125 9.86328125 -3.125 6.3125 C-2.55007813 5.13300781 -1.97515625 3.95351563 -1.3828125 2.73828125 C-0.92648437 1.83464844 -0.47015625 0.93101562 0 0 Z " fill="#292829" transform="translate(460,651)"/>
<path d="M0 0 C3.9429464 1.46596725 5.01834588 3.37308275 6.75 7.125 C7.17796875 8.03507813 7.6059375 8.94515625 8.046875 9.8828125 C8.51867187 10.93082031 8.51867187 10.93082031 9 12 C8.34 12.66 7.68 13.32 7 14 C5.82807953 12.04480616 4.6626071 10.0857461 3.5 8.125 C2.8503125 7.03445313 2.200625 5.94390625 1.53125 4.8203125 C0 2 0 2 0 0 Z " fill="#2D2D2D" transform="translate(662,568)"/>
<path d="M0 0 C4.62 0 9.24 0 14 0 C14 0.66 14 1.32 14 2 C8.97874074 2.77916092 5.02296004 3.13016601 0 2 C0 1.34 0 0.68 0 0 Z " fill="#161515" transform="translate(792,462)"/>
<path d="M0 0 C2 3 2 3 1.875 4.9375 C0.75334838 7.58139311 -0.88641376 9.09095436 -3 11 C-4 8 -4 8 -3.22265625 5.95703125 C-2.83980469 5.24933594 -2.45695312 4.54164063 -2.0625 3.8125 C-1.68222656 3.09707031 -1.30195313 2.38164063 -0.91015625 1.64453125 C-0.60980469 1.10183594 -0.30945313 0.55914063 0 0 Z " fill="#292A29" transform="translate(430,698)"/>
<path d="M0 0 C2.45862401 -0.05383848 4.9160755 -0.09359038 7.375 -0.125 C8.42300781 -0.15013672 8.42300781 -0.15013672 9.4921875 -0.17578125 C11.32897486 -0.19344267 13.16601963 -0.10303261 15 0 C15.66 0.66 16.32 1.32 17 2 C16 3 16 3 12.4375 3.0625 C11.303125 3.041875 10.16875 3.02125 9 3 C9 2.67 9 2.34 9 2 C6.03 1.67 3.06 1.34 0 1 C0 0.67 0 0.34 0 0 Z " fill="#424040" transform="translate(535,601)"/>
<path d="M0 0 C0.66 0 1.32 0 2 0 C0.58707905 4.8274799 -1.42974154 8.7162359 -4 13 C-4.33 13 -4.66 13 -5 13 C-5.74304413 8.24451757 -3.73243053 5.43931262 -1.2890625 1.57421875 C-0.65097656 0.79498047 -0.65097656 0.79498047 0 0 Z " fill="#2F2F2F" transform="translate(435,540)"/>
<path d="M0 0 C1.37478516 0.01740234 1.37478516 0.01740234 2.77734375 0.03515625 C3.69644531 0.04417969 4.61554687 0.05320312 5.5625 0.0625 C6.27277344 0.07410156 6.98304688 0.08570313 7.71484375 0.09765625 C7.38484375 1.08765625 7.05484375 2.07765625 6.71484375 3.09765625 C0.08984375 3.34765625 0.08984375 3.34765625 -3.28515625 1.09765625 C-2.28515625 0.09765625 -2.28515625 0.09765625 0 0 Z " fill="#2B2A2A" transform="translate(744.28515625,461.90234375)"/>
<path d="M0 0 C0.66 0 1.32 0 2 0 C0.43358249 4.30764815 -1.68336156 8.06171464 -4 12 C-4.9435441 9.46100862 -5.16906025 8.39090725 -4.07421875 5.859375 C-3.61660156 5.16328125 -3.15898437 4.4671875 -2.6875 3.75 C-2.23761719 3.04359375 -1.78773438 2.3371875 -1.32421875 1.609375 C-0.88722656 1.07828125 -0.45023437 0.5471875 0 0 Z " fill="#2D2D2D" transform="translate(363,668)"/>
<path d="M0 0 C0.95465783 2.16967689 1.14401212 3.56328793 0.3984375 5.82421875 C-0.35870385 7.5684743 -1.17609198 9.28627131 -2 11 C-2.99 11 -3.98 11 -5 11 C-3.77472971 6.94718288 -2.30119506 3.55639236 0 0 Z " fill="#2B2B2C" transform="translate(265,610)"/>
<path d="M0 0 C0.66 0 1.32 0 2 0 C0.43358249 4.30764815 -1.68336156 8.06171464 -4 12 C-4.6875 10.3125 -4.6875 10.3125 -5 8 C-3.6875 5.25 -3.6875 5.25 -2 3 C-1.34 3 -0.68 3 0 3 C0 2.01 0 1.02 0 0 Z " fill="#2F2E2E" transform="translate(395,611)"/>
<path d="M0 0 C0 3.44360632 -0.79591532 4.74795392 -2.5 7.6875 C-2.9640625 8.49574219 -3.428125 9.30398438 -3.90625 10.13671875 C-4.2671875 10.75160156 -4.628125 11.36648438 -5 12 C-5.80576116 9.67509679 -6.17106563 8.45649006 -5.29296875 6.11328125 C-2.22222222 1.11111111 -2.22222222 1.11111111 0 0 Z " fill="#2E2D2E" transform="translate(450,298)"/>
<path d="M0 0 C0 3.44360632 -0.79591532 4.74795392 -2.5 7.6875 C-2.9640625 8.49574219 -3.428125 9.30398438 -3.90625 10.13671875 C-4.2671875 10.75160156 -4.628125 11.36648438 -5 12 C-5.80576116 9.67509679 -6.17106563 8.45649006 -5.29296875 6.11328125 C-2.22222222 1.11111111 -2.22222222 1.11111111 0 0 Z " fill="#2F2F2F" transform="translate(201,741)"/>
<path d="M0 0 C3 1 3 1 4.6875 3.25 C6.06511203 6.1364252 6.26985151 7.85173236 6 11 C2.90407165 7.4912812 1.25805377 4.50802601 0 0 Z " fill="#2E2D2D" transform="translate(519,533)"/>
<path d="M0 0 C0.66 0 1.32 0 2 0 C0.55049545 3.7910119 -1.15172566 7.3874638 -3 11 C-3.66 10.67 -4.32 10.34 -5 10 C-3.66749209 6.4124787 -2.169283 3.1635377 0 0 Z " fill="#2B2A2B" transform="translate(427,337)"/>
<path d="M0 0 C0.75 1.5625 0.75 1.5625 1 4 C-0.13084437 6.50286409 -1.52139516 8.67007722 -3 11 C-3.66 11 -4.32 11 -5 11 C-3.77472971 6.94718288 -2.30119506 3.55639236 0 0 Z " fill="#2C2C2B" transform="translate(238,658)"/>
<path d="M0 0 C0.66 0 1.32 0 2 0 C0.74194623 4.50802601 -0.90407165 7.4912812 -4 11 C-3.49357808 6.64477147 -2.61588503 3.55760365 0 0 Z " fill="#2F2F2F" transform="translate(267,621)"/>
<path d="M0 0 C2.69069473 1.64913548 3.83824681 2.52629422 4.875 5.5625 C4.936875 6.7690625 4.936875 6.7690625 5 8 C4.34 8.66 3.68 9.32 3 10 C-0.22265625 4.82421875 -0.22265625 4.82421875 -1 3 C-0.67 2.01 -0.34 1.02 0 0 Z " fill="#292829" transform="translate(576,413)"/>
<path d="M0 0 C0.75 1.5625 0.75 1.5625 1 4 C-0.13084437 6.50286409 -1.52139516 8.67007722 -3 11 C-3.66 11 -4.32 11 -5 11 C-3.77472971 6.94718288 -2.30119506 3.55639236 0 0 Z " fill="#2B2B2B" transform="translate(456,271)"/>
<path d="M0 0 C2.40072955 2.88087546 4.47291037 5.56404834 6 9 C5.34 9.66 4.68 10.32 4 11 C0 4.5 0 4.5 0 0 Z " fill="#292929" transform="translate(625,718)"/>
<path d="M0 0 C0.66 0 1.32 0 2 0 C1.54917531 1.46067199 1.08906463 2.91848032 0.625 4.375 C0.36976563 5.18710937 0.11453125 5.99921875 -0.1484375 6.8359375 C-1 9 -1 9 -3 11 C-2.53199289 6.94393835 -2.12046792 3.53411321 0 0 Z " fill="#333333" transform="translate(468,635)"/>
<path d="M0 0 C0.33 0.66 0.66 1.32 1 2 C-0.61594832 4.04119788 -2.2856382 6.04072937 -4 8 C-4.66 8 -5.32 8 -6 8 C-4.6178686 4.24850048 -3.71673111 1.85836556 0 0 Z " fill="#292929" transform="translate(325,508)"/>
<path d="M0 0 C0.66 0 1.32 0 2 0 C5.07692308 5.41538462 5.07692308 5.41538462 4.6875 8.375 C4.460625 8.91125 4.23375 9.4475 4 10 C0 3.375 0 3.375 0 0 Z " fill="#292929" transform="translate(490,481)"/>
<path d="M0 0 C2.45234885 0.98093954 3.7809268 1.68703828 5.3125 3.875 C6.12082372 6.37345514 5.71847013 7.52928976 5 10 C4.16121545 8.71186658 3.32913217 7.41936744 2.5 6.125 C2.0359375 5.40570313 1.571875 4.68640625 1.09375 3.9453125 C0 2 0 2 0 0 Z " fill="#312F30" transform="translate(505,291)"/>
<path d="M0 0 C0.66 0 1.32 0 2 0 C0.74194623 4.50802601 -0.90407165 7.4912812 -4 11 C-4 9.68 -4 8.36 -4 7 C-3.34 7 -2.68 7 -2 7 C-1.855625 6.21625 -1.71125 5.4325 -1.5625 4.625 C-1 2 -1 2 0 0 Z " fill="#2F2F2F" transform="translate(309,546)"/>
<path d="M0 0 C1.0326802 2.78823655 1.04509293 3.8677274 0.0625 6.75 C-0.288125 7.4925 -0.63875 8.235 -1 9 C-1.99 9 -2.98 9 -4 9 C-2.80100302 5.9168649 -1.52299523 2.93720508 0 0 Z " fill="#29292A" transform="translate(336,484)"/>
<path d="M0 0 C0.6875 1.6875 0.6875 1.6875 1 4 C-0.25 6.6875 -0.25 6.6875 -2 9 C-2.99 9.33 -3.98 9.66 -5 10 C-3.66511872 6.40608886 -2.03977277 3.24509304 0 0 Z " fill="#2B2A2B" transform="translate(382,620)"/>
<path d="M0 0 C0.6875 1.6875 0.6875 1.6875 1 4 C-0.3125 6.75 -0.3125 6.75 -2 9 C-2.66 9 -3.32 9 -4 9 C-3.67 6.69 -3.34 4.38 -3 2 C-2.34 2 -1.68 2 -1 2 C-0.67 1.34 -0.34 0.68 0 0 Z " fill="#2E2F2F" transform="translate(475,454)"/>
<path d="M0 0 C1.46726798 3.81489674 0.43336419 6.29011622 -1 10 C-1.99 9.67 -2.98 9.34 -4 9 C-2.80100302 5.9168649 -1.52299523 2.93720508 0 0 Z " fill="#2B2B2B" transform="translate(425,326)"/>
<path d="M0 0 C-1.2491742 3.45925163 -2.67527795 6.14693203 -5 9 C-4.4140625 2.84765625 -4.4140625 2.84765625 -4 1 C-2 0 -2 0 0 0 Z " fill="#292929" transform="translate(469,266)"/>
<path d="M0 0 C0 3.69418201 -1.28179295 5.77836178 -3 9 C-3.66 8.67 -4.32 8.34 -5 8 C-3.8141763 4.62496331 -2.72426311 2.35277269 0 0 Z " fill="#2B2A2A" transform="translate(342,707)"/>
<path d="M0 0 C0.66 0 1.32 0 2 0 C0.90931332 3.77545388 0.0916909 6.47043472 -3 9 C-2.5020163 5.26512223 -2.12508244 3.18762365 0 0 Z " fill="#2E2D2E" transform="translate(226,694)"/>
<path d="M0 0 C0.66 0 1.32 0 2 0 C0.90931332 3.77545388 0.0916909 6.47043472 -3 9 C-2.5020163 5.26512223 -2.12508244 3.18762365 0 0 Z " fill="#302F30" transform="translate(231,685)"/>
<path d="M0 0 C0.33 0 0.66 0 1 0 C0.56179109 4.55737263 0.14958831 7.57653445 -3 11 C-3.33 10.01 -3.66 9.02 -4 8 C-3.34 8 -2.68 8 -2 8 C-1.7834375 6.576875 -1.7834375 6.576875 -1.5625 5.125 C-1 2 -1 2 0 0 Z " fill="#302F2F" transform="translate(446,681)"/>
<path d="M0 0 C-0.8125 2.9375 -0.8125 2.9375 -2 6 C-2.99 6.33 -3.98 6.66 -5 7 C-5.1875 4.625 -5.1875 4.625 -5 2 C-2 0 -2 0 0 0 Z " fill="#2E2E2F" transform="translate(229,678)"/>
<path d="M0 0 C0.6875 1.6875 0.6875 1.6875 1 4 C-0.3125 6.75 -0.3125 6.75 -2 9 C-2.66 9 -3.32 9 -4 9 C-2.80100302 5.9168649 -1.52299523 2.93720508 0 0 Z " fill="#2B2B2C" transform="translate(256,626)"/>
<path d="M0 0 C0.66 0 1.32 0 2 0 C1.29445932 3.66881155 -0.27735506 6.70450534 -2 10 C-2.6875 8.375 -2.6875 8.375 -3 6 C-1.5625 2.75 -1.5625 2.75 0 0 Z " fill="#292929" transform="translate(385,628)"/>
<path d="M0 0 C0.66 0 1.32 0 2 0 C0.7508258 3.45925163 -0.67527795 6.14693203 -3 9 C-3.25532751 5.93606987 -3.21861333 4.36766788 -1.625 1.6875 C-0.820625 0.8521875 -0.820625 0.8521875 0 0 Z " fill="#2D2D2D" transform="translate(418,570)"/>
<path d="M0 0 C0.66 0 1.32 0 2 0 C0.7508258 3.45925163 -0.67527795 6.14693203 -3 9 C-3.33 8.01 -3.66 7.02 -4 6 C-2.1875 2.8125 -2.1875 2.8125 0 0 Z " fill="#29292A" transform="translate(468,481)"/>
<path d="M0 0 C0.33 0.66 0.66 1.32 1 2 C0.22265625 3.7265625 0.22265625 3.7265625 -0.9375 5.625 C-1.618125 6.73875 -2.29875 7.8525 -3 9 C-3.66 8.67 -4.32 8.34 -5 8 C-3.8141763 4.62496331 -2.72426311 2.35277269 0 0 Z " fill="#303030" transform="translate(477,467)"/>
<path d="M0 0 C0.66 0 1.32 0 2 0 C0.90931332 3.77545388 0.0916909 6.47043472 -3 9 C-2.5020163 5.26512223 -2.12508244 3.18762365 0 0 Z " fill="#303030" transform="translate(361,454)"/>
<path d="M0 0 C2.99324263 1.0975223 3.84610901 1.67682892 5.25 4.625 C5.4975 5.40875 5.745 6.1925 6 7 C5.34 7.66 4.68 8.32 4 9 C0 2.25 0 2.25 0 0 Z " fill="#2F2F2F" transform="translate(550,370)"/>
<path d="M0 0 C0.66 0.33 1.32 0.66 2 1 C0.90931332 4.77545388 0.0916909 7.47043472 -3 10 C-2.49287967 6.28111761 -1.88391785 3.26545761 0 0 Z " fill="#2B2B2B" transform="translate(437,318)"/>
<path d="M0 0 C0.66 0.99 1.32 1.98 2 3 C-0.625 7.875 -0.625 7.875 -4 9 C-2.80100302 5.9168649 -1.52299523 2.93720508 0 0 Z " fill="#2A2929" transform="translate(182,758)"/>
<path d="M0 0 C2.99324263 1.0975223 3.84610901 1.67682892 5.25 4.625 C5.4975 5.40875 5.745 6.1925 6 7 C5.34 7.66 4.68 8.32 4 9 C0 2.25 0 2.25 0 0 Z " fill="#303030" transform="translate(639,745)"/>
<path d="M0 0 C-0.33 1.32 -0.66 2.64 -1 4 C-1.66 3.34 -2.32 2.68 -3 2 C-5.65537372 1.43479997 -8.29144713 1.26211802 -11 1 C-11 0.67 -11 0.34 -11 0 C-9.54263913 -0.19491452 -8.08405407 -0.38069358 -6.625 -0.5625 C-5.81289063 -0.66691406 -5.00078125 -0.77132812 -4.1640625 -0.87890625 C-2 -1 -2 -1 0 0 Z " fill="#2E2E2F" transform="translate(623,713)"/>
<path d="M0 0 C0.6875 1.6875 0.6875 1.6875 1 4 C-0.3125 6.75 -0.3125 6.75 -2 9 C-2.66 9 -3.32 9 -4 9 C-2.80100302 5.9168649 -1.52299523 2.93720508 0 0 Z " fill="#292928" transform="translate(219,692)"/>
<path d="M0 0 C0.66 0 1.32 0 2 0 C0.7508258 3.45925163 -0.67527795 6.14693203 -3 9 C-2.5020163 5.26512223 -2.12508244 3.18762365 0 0 Z " fill="#2A292A" transform="translate(258,637)"/>
<path d="M0 0 C0.6875 1.6875 0.6875 1.6875 1 4 C-0.3125 6.75 -0.3125 6.75 -2 9 C-2.66 9 -3.32 9 -4 9 C-2.94124926 5.59687262 -1.99097846 2.98646769 0 0 Z " fill="#2F2F2F" transform="translate(251,635)"/>
<path d="M0 0 C4.42857143 5.14285714 4.42857143 5.14285714 5 9 C4.34 9 3.68 9 3 9 C0.56839395 5.63316085 0 4.26649636 0 0 Z " fill="#2C2B2B" transform="translate(698,615)"/>
<path d="M0 0 C0.66 0 1.32 0 2 0 C0.7508258 3.45925163 -0.67527795 6.14693203 -3 9 C-2.5020163 5.26512223 -2.12508244 3.18762365 0 0 Z " fill="#2D2D2D" transform="translate(400,602)"/>
<path d="M0 0 C0.66 0 1.32 0 2 0 C0.7508258 3.45925163 -0.67527795 6.14693203 -3 9 C-3.25532751 5.93606987 -3.21861333 4.36766788 -1.625 1.6875 C-0.820625 0.8521875 -0.820625 0.8521875 0 0 Z " fill="#2D2C2C" transform="translate(413,579)"/>
<path d="M0 0 C0.66 0 1.32 0 2 0 C0.7508258 3.45925163 -0.67527795 6.14693203 -3 9 C-2.5020163 5.26512223 -2.12508244 3.18762365 0 0 Z " fill="#2B2A2A" transform="translate(427,554)"/>
<path d="M0 0 C0.6875 1.6875 0.6875 1.6875 1 4 C-0.3125 6.75 -0.3125 6.75 -2 9 C-2.66 9 -3.32 9 -4 9 C-2.94124926 5.59687262 -1.99097846 2.98646769 0 0 Z " fill="#2D2D2D" transform="translate(313,525)"/>
<path d="M0 0 C0.66 0 1.32 0 2 0 C0.7508258 3.45925163 -0.67527795 6.14693203 -3 9 C-2.5020163 5.26512223 -2.12508244 3.18762365 0 0 Z " fill="#292929" transform="translate(384,413)"/>
<path d="M0 0 C0.66 0 1.32 0 2 0 C0.7508258 3.45925163 -0.67527795 6.14693203 -3 9 C-2.5020163 5.26512223 -2.12508244 3.18762365 0 0 Z " fill="#2F2F2F" transform="translate(409,369)"/>
<path d="M0 0 C0.66 0.66 1.32 1.32 2 2 C1.625 4.125 1.625 4.125 1 6 C-0.32 6.33 -1.64 6.66 -3 7 C-1.125 2.25 -1.125 2.25 0 0 Z " fill="#2B2B2B" transform="translate(434,310)"/>
<path d="M0 0 C0.66 0 1.32 0 2 0 C0.125 5.75 0.125 5.75 -1 8 C-1.66 7.67 -2.32 7.34 -3 7 C-2.01 4.69 -1.02 2.38 0 0 Z " fill="#343435" transform="translate(193,753)"/>
<path d="M0 0 C0.66 0 1.32 0 2 0 C0.7508258 3.45925163 -0.67527795 6.14693203 -3 9 C-2.5020163 5.26512223 -2.12508244 3.18762365 0 0 Z " fill="#2A2A2A" transform="translate(210,723)"/>
<path d="M0 0 C0 0.66 0 1.32 0 2 C-2.75078884 2.91692961 -4.35948913 3.10886083 -7.1875 3.0625 C-9.0746875 3.0315625 -9.0746875 3.0315625 -11 3 C-11.33 2.34 -11.66 1.68 -12 1 C-10.56274129 0.83126522 -9.12518162 0.66509263 -7.6875 0.5 C-6.88699219 0.4071875 -6.08648437 0.314375 -5.26171875 0.21875 C-3 0 -3 0 0 0 Z " fill="#252526" transform="translate(451,712)"/>
<path d="M0 0 C0.33 0 0.66 0 1 0 C1 1.98 1 3.96 1 6 C-0.32 6.33 -1.64 6.66 -3 7 C-1.125 2.25 -1.125 2.25 0 0 Z " fill="#292828" transform="translate(269,603)"/>
<path d="M0 0 C1.0326802 2.78823655 1.04509293 3.8677274 0.0625 6.75 C-0.288125 7.4925 -0.63875 8.235 -1 9 C-2.1875 7.3125 -2.1875 7.3125 -3 5 C-1.625 2.25 -1.625 2.25 0 0 Z " fill="#2A2A2A" transform="translate(278,587)"/>
<path d="M0 0 C0.66 0.99 1.32 1.98 2 3 C-0.625 7.875 -0.625 7.875 -4 9 C-2.80100302 5.9168649 -1.52299523 2.93720508 0 0 Z " fill="#2A2B2B" transform="translate(448,502)"/>
<path d="M0 0 C1.5625 1.25 1.5625 1.25 3 3 C2.6875 5.1875 2.6875 5.1875 2 7 C0.33333333 5.33333333 -1.33333333 3.66666667 -3 2 C-2.01 1.34 -1.02 0.68 0 0 Z " fill="#373738" transform="translate(605,465)"/>
<path d="M0 0 C0.66 0 1.32 0 2 0 C1.1875 2.9375 1.1875 2.9375 0 6 C-0.99 6.33 -1.98 6.66 -3 7 C-1.125 1.125 -1.125 1.125 0 0 Z " fill="#29292A" transform="translate(474,239)"/>
<path d="M0 0 C0.99 0.495 0.99 0.495 2 1 C1.67 1.99 1.34 2.98 1 4 C0.67 2.68 0.34 1.36 0 0 Z " fill="#5B5A59" transform="translate(488,483)"/>
<path d="M0 0 C0.66 0.33 1.32 0.66 2 1 C1.67 1.66 1.34 2.32 1 3 C0.34 2.34 -0.32 1.68 -1 1 C-0.67 0.67 -0.34 0.34 0 0 Z " fill="#5D5C5C" transform="translate(572,413)"/>
<path d="M0 0 C0.66 0 1.32 0 2 0 C2 0.66 2 1.32 2 2 C1.34 2 0.68 2 0 2 C0 1.34 0 0.68 0 0 Z " fill="#595858" transform="translate(208,706)"/>
<path d="M0 0 C0.99 0.495 0.99 0.495 2 1 C1.67 1.66 1.34 2.32 1 3 C0.67 2.01 0.34 1.02 0 0 Z " fill="#5E5D5D" transform="translate(537,569)"/>
<path d="M0 0 C0.99 1.485 0.99 1.485 2 3 C1.34 3 0.68 3 0 3 C0 2.01 0 1.02 0 0 Z " fill="#5C5B5B" transform="translate(521,540)"/>
<path d="M0 0 C0.99 0.495 0.99 0.495 2 1 C1.67 1.66 1.34 2.32 1 3 C0.67 2.01 0.34 1.02 0 0 Z " fill="#5D5B5B" transform="translate(545,365)"/>
<path d="M0 0 C0.99 0.495 0.99 0.495 2 1 C1.34 1.66 0.68 2.32 0 3 C0 2.01 0 1.02 0 0 Z " fill="#595959" transform="translate(416,337)"/>
<path d="M0 0 C0.99 0.33 1.98 0.66 3 1 C2.01 1 1.02 1 0 1 C0 0.67 0 0.34 0 0 Z " fill="#5C5B5A" transform="translate(496,283)"/>
<path d="M0 0 C0.99 0.495 0.99 0.495 2 1 C1.67 1.66 1.34 2.32 1 3 C0.67 2.01 0.34 1.02 0 0 Z " fill="#5C5C5B" transform="translate(489,267)"/>
<path d="" fill="#5A585A" transform="translate(0,0)"/>
<path d="" fill="#5F5E5E" transform="translate(0,0)"/>
<path d="M0 0 C0.66 0 1.32 0 2 0 C1.67 0.66 1.34 1.32 1 2 C0.67 1.34 0.34 0.68 0 0 Z " fill="#5C5C5C" transform="translate(352,667)"/>
<path d="" fill="#5D5D5C" transform="translate(0,0)"/>
<path d="M0 0 C0.33 0.66 0.66 1.32 1 2 C0.34 1.67 -0.32 1.34 -1 1 C-0.67 0.67 -0.34 0.34 0 0 Z " fill="#5D5D5D" transform="translate(505,512)"/>
<path d="M0 0 C0.66 0 1.32 0 2 0 C1.67 0.66 1.34 1.32 1 2 C0.67 1.34 0.34 0.68 0 0 Z " fill="#5C5C5B" transform="translate(465,466)"/>
<path d="" fill="#595858" transform="translate(0,0)"/>
<path d="M0 0 C0.66 0.66 1.32 1.32 2 2 C1.34 2 0.68 2 0 2 C0 1.34 0 0.68 0 0 Z " fill="#5B5958" transform="translate(554,381)"/>
<path d="M0 0 C3 1 3 1 3 1 Z " fill="#5C5959" transform="translate(520,325)"/>
<path d="" fill="#515150" transform="translate(0,0)"/>
<path d="" fill="#5B5C5C" transform="translate(0,0)"/>
<path d="" fill="#5D5C5C" transform="translate(0,0)"/>
<path d="" fill="#5C5C5E" transform="translate(0,0)"/>
<path d="" fill="#5B5A59" transform="translate(0,0)"/>
<path d="" fill="#626363" transform="translate(0,0)"/>
<path d="" fill="#5B5A59" transform="translate(0,0)"/>
<path d="" fill="#5E5F5D" transform="translate(0,0)"/>
<path d="M0 0 C2 1 2 1 2 1 Z " fill="#5E5E5E" transform="translate(696,636)"/>
<path d="M0 0 C2 1 2 1 2 1 Z " fill="#626260" transform="translate(486,611)"/>
<path d="M0 0 C2 1 2 1 2 1 Z " fill="#5C5D5C" transform="translate(384,611)"/>
<path d="" fill="#5D5C5B" transform="translate(0,0)"/>
<path d="" fill="#605F60" transform="translate(0,0)"/>
<path d="" fill="#5F5E5D" transform="translate(0,0)"/>
<path d="" fill="#5C5D5C" transform="translate(0,0)"/>
<path d="M0 0 C2 1 2 1 2 1 Z " fill="#5E5D5D" transform="translate(656,563)"/>
<path d="" fill="#605F5E" transform="translate(0,0)"/>
<path d="" fill="#5D5B5C" transform="translate(0,0)"/>
<path d="" fill="#5C5B5C" transform="translate(0,0)"/>
<path d="" fill="#5D5C5C" transform="translate(0,0)"/>
<path d="M0 0 C2 1 2 1 2 1 Z " fill="#5E5E5D" transform="translate(516,534)"/>
<path d="M0 0 C2 1 2 1 2 1 Z " fill="#5D5C5C" transform="translate(633,525)"/>
<path d="" fill="#5D5B5C" transform="translate(0,0)"/>
<path d="" fill="#5C5B5B" transform="translate(0,0)"/>
<path d="" fill="#595959" transform="translate(0,0)"/>
<path d="" fill="#5A5959" transform="translate(0,0)"/>
<path d="M0 0 C2 1 2 1 2 1 Z " fill="#5E5D5D" transform="translate(603,470)"/>
<path d="" fill="#5B5A5B" transform="translate(0,0)"/>
<path d="" fill="#5E5D5D" transform="translate(0,0)"/>
<path d="" fill="#5E5B5C" transform="translate(0,0)"/>
<path d="M0 0 C2 1 2 1 2 1 Z " fill="#5F5E5D" transform="translate(570,410)"/>
<path d="" fill="#5B5A5A" transform="translate(0,0)"/>
<path d="M0 0 C2 1 2 1 2 1 Z " fill="#595958" transform="translate(424,323)"/>
<path d="" fill="#5F5E5E" transform="translate(0,0)"/>
<path d="" fill="#5F5E5F" transform="translate(0,0)"/>
<path d="M0 0 C2 1 2 1 2 1 Z " fill="#5C5A5C" transform="translate(498,285)"/>
<path d="" fill="#5A5859" transform="translate(0,0)"/>
<path d="" fill="#575456" transform="translate(0,0)"/>
<path d="" fill="#575757" transform="translate(0,0)"/>
<path d="" fill="#2B2C2B" transform="translate(0,0)"/>
<path d="" fill="#323332" transform="translate(0,0)"/>
<path d="" fill="#636363" transform="translate(0,0)"/>
<path d="" fill="#5C5D5B" transform="translate(0,0)"/>
<path d="" fill="#5C5C5A" transform="translate(0,0)"/>
<path d="" fill="#5D5B5C" transform="translate(0,0)"/>
<path d="" fill="#5D5C5C" transform="translate(0,0)"/>
<path d="" fill="#504E4E" transform="translate(0,0)"/>
<path d="" fill="#5F6060" transform="translate(0,0)"/>
<path d="" fill="#5E5B5D" transform="translate(0,0)"/>
<path d="" fill="#5F5E5E" transform="translate(0,0)"/>
<path d="" fill="#585755" transform="translate(0,0)"/>
<path d="" fill="#575455" transform="translate(0,0)"/>
<path d="" fill="#585755" transform="translate(0,0)"/>
<path d="" fill="#5D5D5D" transform="translate(0,0)"/>
<path d="" fill="#616262" transform="translate(0,0)"/>
<path d="" fill="#5D5D5D" transform="translate(0,0)"/>
<path d="" fill="#5D5C5C" transform="translate(0,0)"/>
<path d="" fill="#5D5D5F" transform="translate(0,0)"/>
<path d="" fill="#5C5E5D" transform="translate(0,0)"/>
<path d="" fill="#5A5B59" transform="translate(0,0)"/>
<path d="" fill="#5A5B5A" transform="translate(0,0)"/>
<path d="" fill="#565554" transform="translate(0,0)"/>
<path d="" fill="#5E5F5D" transform="translate(0,0)"/>
<path d="" fill="#595B58" transform="translate(0,0)"/>
<path d="" fill="#626263" transform="translate(0,0)"/>
<path d="" fill="#5D5E5E" transform="translate(0,0)"/>
<path d="" fill="#5C5C5C" transform="translate(0,0)"/>
<path d="" fill="#5A5B5B" transform="translate(0,0)"/>
<path d="" fill="#5C5B5B" transform="translate(0,0)"/>
<path d="" fill="#625F5F" transform="translate(0,0)"/>
<path d="" fill="#626363" transform="translate(0,0)"/>
<path d="" fill="#5F5F5E" transform="translate(0,0)"/>
<path d="" fill="#5E5B5C" transform="translate(0,0)"/>
<path d="" fill="#626261" transform="translate(0,0)"/>
<path d="" fill="#5C5C5A" transform="translate(0,0)"/>
<path d="" fill="#5C5A58" transform="translate(0,0)"/>
<path d="" fill="#626262" transform="translate(0,0)"/>
<path d="" fill="#5C5D5D" transform="translate(0,0)"/>
<path d="" fill="#676464" transform="translate(0,0)"/>
<path d="" fill="#656264" transform="translate(0,0)"/>
<path d="" fill="#676565" transform="translate(0,0)"/>
<path d="" fill="#646563" transform="translate(0,0)"/>
<path d="" fill="#646262" transform="translate(0,0)"/>
<path d="" fill="#636363" transform="translate(0,0)"/>
<path d="" fill="#5F5E5D" transform="translate(0,0)"/>
<path d="" fill="#5A5A5B" transform="translate(0,0)"/>
<path d="" fill="#616362" transform="translate(0,0)"/>
<path d="" fill="#5F5D5C" transform="translate(0,0)"/>
<path d="" fill="#5E5D5C" transform="translate(0,0)"/>
<path d="" fill="#636161" transform="translate(0,0)"/>
<path d="" fill="#5E5D5D" transform="translate(0,0)"/>
<path d="" fill="#605E5F" transform="translate(0,0)"/>
<path d="" fill="#5A5959" transform="translate(0,0)"/>
<path d="" fill="#5F5D5D" transform="translate(0,0)"/>
<path d="" fill="#5B5A57" transform="translate(0,0)"/>
<path d="" fill="#5A5858" transform="translate(0,0)"/>
<path d="" fill="#5D5C5C" transform="translate(0,0)"/>
<path d="" fill="#595956" transform="translate(0,0)"/>
<path d="" fill="#605F5D" transform="translate(0,0)"/>
<path d="" fill="#5E5C5B" transform="translate(0,0)"/>
<path d="" fill="#5F6060" transform="translate(0,0)"/>
<path d="" fill="#5D5C5C" transform="translate(0,0)"/>
<path d="" fill="#5B595B" transform="translate(0,0)"/>
<path d="" fill="#605E5E" transform="translate(0,0)"/>
<path d="" fill="#5E5E5D" transform="translate(0,0)"/>
<path d="" fill="#5D5D5B" transform="translate(0,0)"/>
<path d="" fill="#5E5E5F" transform="translate(0,0)"/>
<path d="" fill="#5E5D5D" transform="translate(0,0)"/>
<path d="" fill="#5F5E5F" transform="translate(0,0)"/>
<path d="" fill="#616463" transform="translate(0,0)"/>
<path d="" fill="#5D5D5D" transform="translate(0,0)"/>
<path d="" fill="#616262" transform="translate(0,0)"/>
<path d="" fill="#60615F" transform="translate(0,0)"/>
<path d="" fill="#5D5C5A" transform="translate(0,0)"/>
<path d="" fill="#5C5B5A" transform="translate(0,0)"/>
<path d="" fill="#616060" transform="translate(0,0)"/>
<path d="" fill="#5C5D5B" transform="translate(0,0)"/>
<path d="" fill="#5B5A59" transform="translate(0,0)"/>
<path d="" fill="#605F60" transform="translate(0,0)"/>
<path d="" fill="#616260" transform="translate(0,0)"/>
<path d="" fill="#5F5E5D" transform="translate(0,0)"/>
<path d="" fill="#626163" transform="translate(0,0)"/>
<path d="" fill="#5D5B5C" transform="translate(0,0)"/>
<path d="" fill="#575756" transform="translate(0,0)"/>
<path d="" fill="#5D5E5E" transform="translate(0,0)"/>
<path d="" fill="#616060" transform="translate(0,0)"/>
<path d="" fill="#636463" transform="translate(0,0)"/>
<path d="" fill="#626162" transform="translate(0,0)"/>
<path d="" fill="#626262" transform="translate(0,0)"/>
<path d="" fill="#5B5A59" transform="translate(0,0)"/>
<path d="" fill="#626361" transform="translate(0,0)"/>
<path d="" fill="#5B5B59" transform="translate(0,0)"/>
<path d="" fill="#5A5B5C" transform="translate(0,0)"/>
<path d="" fill="#5F5F5F" transform="translate(0,0)"/>
<path d="" fill="#5D5D5D" transform="translate(0,0)"/>
<path d="" fill="#5F5E5D" transform="translate(0,0)"/>
<path d="" fill="#5D5B5B" transform="translate(0,0)"/>
<path d="" fill="#5F5F60" transform="translate(0,0)"/>
<path d="" fill="#5D5D5C" transform="translate(0,0)"/>
<path d="" fill="#605F5F" transform="translate(0,0)"/>
<path d="" fill="#5C5D5D" transform="translate(0,0)"/>
<path d="" fill="#606060" transform="translate(0,0)"/>
<path d="" fill="#606360" transform="translate(0,0)"/>
<path d="" fill="#646365" transform="translate(0,0)"/>
<path d="" fill="#5A5C5B" transform="translate(0,0)"/>
<path d="" fill="#5A5B5A" transform="translate(0,0)"/>
<path d="" fill="#5C5A5B" transform="translate(0,0)"/>
<path d="" fill="#5F5E5E" transform="translate(0,0)"/>
<path d="" fill="#615F5F" transform="translate(0,0)"/>
<path d="" fill="#616160" transform="translate(0,0)"/>
<path d="" fill="#625F60" transform="translate(0,0)"/>
<path d="" fill="#5C5A5A" transform="translate(0,0)"/>
<path d="" fill="#60605F" transform="translate(0,0)"/>
<path d="" fill="#5F605F" transform="translate(0,0)"/>
<path d="" fill="#636360" transform="translate(0,0)"/>
<path d="" fill="#5B5C59" transform="translate(0,0)"/>
<path d="" fill="#5B5A59" transform="translate(0,0)"/>
<path d="" fill="#5A5B5C" transform="translate(0,0)"/>
<path d="" fill="#5C5B5A" transform="translate(0,0)"/>
<path d="" fill="#5C5B5A" transform="translate(0,0)"/>
<path d="" fill="#605C5B" transform="translate(0,0)"/>
<path d="" fill="#5A5A5B" transform="translate(0,0)"/>
<path d="" fill="#5C5D5A" transform="translate(0,0)"/>
<path d="" fill="#585857" transform="translate(0,0)"/>
<path d="" fill="#5B5A5B" transform="translate(0,0)"/>
<path d="" fill="#5D5E5E" transform="translate(0,0)"/>
<path d="" fill="#5F5E5F" transform="translate(0,0)"/>
<path d="" fill="#5E5C5C" transform="translate(0,0)"/>
<path d="" fill="#5A5957" transform="translate(0,0)"/>
<path d="" fill="#5A5856" transform="translate(0,0)"/>
<path d="" fill="#616061" transform="translate(0,0)"/>
<path d="" fill="#626160" transform="translate(0,0)"/>
<path d="" fill="#5F5F60" transform="translate(0,0)"/>
<path d="" fill="#636261" transform="translate(0,0)"/>
<path d="" fill="#5E5F5C" transform="translate(0,0)"/>
<path d="" fill="#5E5D5D" transform="translate(0,0)"/>
<path d="" fill="#5F5F5E" transform="translate(0,0)"/>
<path d="" fill="#5A5A58" transform="translate(0,0)"/>
<path d="" fill="#5E5F5E" transform="translate(0,0)"/>
<path d="" fill="#60615F" transform="translate(0,0)"/>
<path d="" fill="#605D5E" transform="translate(0,0)"/>
<path d="" fill="#636263" transform="translate(0,0)"/>
<path d="" fill="#636464" transform="translate(0,0)"/>
<path d="" fill="#605E5E" transform="translate(0,0)"/>
<path d="" fill="#5A5C5B" transform="translate(0,0)"/>
<path d="" fill="#5C5B5B" transform="translate(0,0)"/>
<path d="" fill="#5D5A5A" transform="translate(0,0)"/>
<path d="" fill="#5C595C" transform="translate(0,0)"/>
<path d="" fill="#5B5B5B" transform="translate(0,0)"/>
<path d="" fill="#5F5D5D" transform="translate(0,0)"/>
<path d="" fill="#5A5B59" transform="translate(0,0)"/>
<path d="" fill="#5A5959" transform="translate(0,0)"/>
<path d="" fill="#5C5D59" transform="translate(0,0)"/>
<path d="" fill="#5D5C5E" transform="translate(0,0)"/>
<path d="" fill="#5F605E" transform="translate(0,0)"/>
<path d="" fill="#5C5A5B" transform="translate(0,0)"/>
<path d="" fill="#616060" transform="translate(0,0)"/>
<path d="" fill="#585858" transform="translate(0,0)"/>
<path d="" fill="#5E5D5D" transform="translate(0,0)"/>
<path d="" fill="#61605F" transform="translate(0,0)"/>
<path d="" fill="#615C5D" transform="translate(0,0)"/>
<path d="" fill="#60605E" transform="translate(0,0)"/>
<path d="" fill="#60605E" transform="translate(0,0)"/>
<path d="" fill="#5B5A5A" transform="translate(0,0)"/>
<path d="" fill="#5F5D5B" transform="translate(0,0)"/>
<path d="" fill="#5D5D5D" transform="translate(0,0)"/>
<path d="" fill="#525250" transform="translate(0,0)"/>
<path d="" fill="#626064" transform="translate(0,0)"/>
<path d="" fill="#5F5F5E" transform="translate(0,0)"/>
<path d="" fill="#616261" transform="translate(0,0)"/>
<path d="" fill="#5F615D" transform="translate(0,0)"/>
<path d="" fill="#5F5E5E" transform="translate(0,0)"/>
<path d="" fill="#606161" transform="translate(0,0)"/>
<path d="" fill="#5F5F5D" transform="translate(0,0)"/>
<path d="" fill="#5D5C5C" transform="translate(0,0)"/>
<path d="" fill="#5E5D5C" transform="translate(0,0)"/>
<path d="" fill="#5B5A59" transform="translate(0,0)"/>
<path d="" fill="#5D5E5D" transform="translate(0,0)"/>
<path d="" fill="#5D5B5E" transform="translate(0,0)"/>
<path d="" fill="#5C5B5B" transform="translate(0,0)"/>
<path d="" fill="#5D5C5A" transform="translate(0,0)"/>
<path d="" fill="#595556" transform="translate(0,0)"/>
<path d="" fill="#5D5D5B" transform="translate(0,0)"/>
<path d="" fill="#5F605F" transform="translate(0,0)"/>
<path d="" fill="#5D5D5C" transform="translate(0,0)"/>
<path d="" fill="#5D5D5E" transform="translate(0,0)"/>
<path d="" fill="#636061" transform="translate(0,0)"/>
<path d="" fill="#5F5E5C" transform="translate(0,0)"/>
<path d="" fill="#60605E" transform="translate(0,0)"/>
<path d="" fill="#595757" transform="translate(0,0)"/>
<path d="" fill="#575553" transform="translate(0,0)"/>
<path d="" fill="#5D5E5C" transform="translate(0,0)"/>
<path d="" fill="#5D5B5C" transform="translate(0,0)"/>
<path d="" fill="#5F5D5D" transform="translate(0,0)"/>
<path d="" fill="#5C5B5A" transform="translate(0,0)"/>
<path d="" fill="#595A5A" transform="translate(0,0)"/>
<path d="" fill="#5D5D5C" transform="translate(0,0)"/>
<path d="" fill="#5D5D5B" transform="translate(0,0)"/>
<path d="" fill="#5E5C59" transform="translate(0,0)"/>
<path d="" fill="#595958" transform="translate(0,0)"/>
<path d="" fill="#5E5D5E" transform="translate(0,0)"/>
<path d="" fill="#5D5D5D" transform="translate(0,0)"/>
<path d="" fill="#5E5F5E" transform="translate(0,0)"/>
<path d="" fill="#616262" transform="translate(0,0)"/>
<path d="" fill="#5E5D5D" transform="translate(0,0)"/>
<path d="" fill="#5E5D5D" transform="translate(0,0)"/>
<path d="" fill="#5D5B5B" transform="translate(0,0)"/>
<path d="" fill="#5E5C5B" transform="translate(0,0)"/>
<path d="" fill="#5B595A" transform="translate(0,0)"/>
<path d="" fill="#5A5A59" transform="translate(0,0)"/>
<path d="" fill="#585756" transform="translate(0,0)"/>
<path d="" fill="#5E5E5C" transform="translate(0,0)"/>
<path d="" fill="#5A5757" transform="translate(0,0)"/>
<path d="" fill="#5F5E5F" transform="translate(0,0)"/>
<path d="" fill="#585759" transform="translate(0,0)"/>
<path d="" fill="#57585A" transform="translate(0,0)"/>
<path d="" fill="#595A59" transform="translate(0,0)"/>
<path d="" fill="#5F5D5E" transform="translate(0,0)"/>
<path d="" fill="#5A5A59" transform="translate(0,0)"/>
<path d="" fill="#5E5F5E" transform="translate(0,0)"/>
<path d="" fill="#5C5C5A" transform="translate(0,0)"/>
<path d="" fill="#595757" transform="translate(0,0)"/>
<path d="" fill="#5A5A5B" transform="translate(0,0)"/>
<path d="" fill="#5A5B5A" transform="translate(0,0)"/>
<path d="" fill="#5C5C5A" transform="translate(0,0)"/>
<path d="" fill="#5B5A5A" transform="translate(0,0)"/>
<path d="" fill="#605E5E" transform="translate(0,0)"/>
<path d="" fill="#5C5A5C" transform="translate(0,0)"/>
<path d="" fill="#5E5D5C" transform="translate(0,0)"/>
<path d="" fill="#5C5C59" transform="translate(0,0)"/>
<path d="" fill="#575858" transform="translate(0,0)"/>
<path d="" fill="#5E5B5C" transform="translate(0,0)"/>
<path d="" fill="#606061" transform="translate(0,0)"/>
<path d="" fill="#5F5E5D" transform="translate(0,0)"/>
<path d="" fill="#5B5B5B" transform="translate(0,0)"/>
<path d="" fill="#5D5B5D" transform="translate(0,0)"/>
<path d="" fill="#5D5F5C" transform="translate(0,0)"/>
<path d="" fill="#5C5B5A" transform="translate(0,0)"/>
<path d="" fill="#5F605F" transform="translate(0,0)"/>
<path d="" fill="#5B5C5D" transform="translate(0,0)"/>
<path d="" fill="#5A5859" transform="translate(0,0)"/>
<path d="" fill="#5D5D5C" transform="translate(0,0)"/>
<path d="" fill="#5E5D5D" transform="translate(0,0)"/>
<path d="" fill="#5E5D5C" transform="translate(0,0)"/>
<path d="" fill="#5A595A" transform="translate(0,0)"/>
<path d="" fill="#5D5C5B" transform="translate(0,0)"/>
<path d="" fill="#5E5E5D" transform="translate(0,0)"/>
<path d="" fill="#5D5C5C" transform="translate(0,0)"/>
<path d="" fill="#5A5A59" transform="translate(0,0)"/>
<path d="" fill="#5E5D5D" transform="translate(0,0)"/>
<path d="" fill="#5A5859" transform="translate(0,0)"/>
<path d="" fill="#585757" transform="translate(0,0)"/>
<path d="" fill="#585655" transform="translate(0,0)"/>
<path d="" fill="#5B5B5C" transform="translate(0,0)"/>
<path d="" fill="#5D5C5B" transform="translate(0,0)"/>
<path d="" fill="#5D5B5B" transform="translate(0,0)"/>
<path d="" fill="#5E5C5A" transform="translate(0,0)"/>
<path d="" fill="#5D5C5D" transform="translate(0,0)"/>
<path d="" fill="#5A5B59" transform="translate(0,0)"/>
<path d="" fill="#595A58" transform="translate(0,0)"/>
<path d="" fill="#5E5D5B" transform="translate(0,0)"/>
<path d="" fill="#5A5B5B" transform="translate(0,0)"/>
<path d="" fill="#606061" transform="translate(0,0)"/>
<path d="" fill="#605E5E" transform="translate(0,0)"/>
<path d="" fill="#5F5E5C" transform="translate(0,0)"/>
<path d="" fill="#5D5B5B" transform="translate(0,0)"/>
<path d="" fill="#656161" transform="translate(0,0)"/>
<path d="" fill="#636061" transform="translate(0,0)"/>
<path d="" fill="#656765" transform="translate(0,0)"/>
<path d="" fill="#676867" transform="translate(0,0)"/>
<path d="" fill="#686968" transform="translate(0,0)"/>
<path d="" fill="#656364" transform="translate(0,0)"/>
<path d="" fill="#656565" transform="translate(0,0)"/>
<path d="" fill="#5C5758" transform="translate(0,0)"/>
<path d="" fill="#5D5E5D" transform="translate(0,0)"/>
<path d="" fill="#5A5A5A" transform="translate(0,0)"/>
<path d="" fill="#5E5D5C" transform="translate(0,0)"/>
<path d="" fill="#5F5E5F" transform="translate(0,0)"/>
<path d="" fill="#5C5B5B" transform="translate(0,0)"/>
<path d="" fill="#5C5B5B" transform="translate(0,0)"/>
<path d="" fill="#5A5C5B" transform="translate(0,0)"/>
<path d="" fill="#5E5E5B" transform="translate(0,0)"/>
<path d="" fill="#5A5959" transform="translate(0,0)"/>
<path d="" fill="#605E5C" transform="translate(0,0)"/>
<path d="" fill="#5E5E5C" transform="translate(0,0)"/>
<path d="" fill="#575958" transform="translate(0,0)"/>
<path d="" fill="#5D5C5A" transform="translate(0,0)"/>
<path d="" fill="#5B5A59" transform="translate(0,0)"/>
<path d="" fill="#5B595A" transform="translate(0,0)"/>
<path d="" fill="#5D5C5A" transform="translate(0,0)"/>
<path d="" fill="#5F615D" transform="translate(0,0)"/>
<path d="" fill="#5B5C5B" transform="translate(0,0)"/>
<path d="" fill="#5E5B5B" transform="translate(0,0)"/>
<path d="" fill="#5D5E5D" transform="translate(0,0)"/>
<path d="" fill="#5B5A5B" transform="translate(0,0)"/>
<path d="" fill="#5C5B5B" transform="translate(0,0)"/>
<path d="" fill="#5D5C5C" transform="translate(0,0)"/>
<path d="" fill="#5C5A58" transform="translate(0,0)"/>
<path d="" fill="#5C5A5B" transform="translate(0,0)"/>
<path d="" fill="#585859" transform="translate(0,0)"/>
<path d="" fill="#5C5C5A" transform="translate(0,0)"/>
<path d="" fill="#5B5B5A" transform="translate(0,0)"/>
<path d="" fill="#575656" transform="translate(0,0)"/>
<path d="" fill="#5C5C5D" transform="translate(0,0)"/>
<path d="" fill="#5D5E5C" transform="translate(0,0)"/>
<path d="" fill="#444444" transform="translate(0,0)"/>
<path d="" fill="#5B5B5C" transform="translate(0,0)"/>
<path d="" fill="#5C5A5A" transform="translate(0,0)"/>
<path d="" fill="#626060" transform="translate(0,0)"/>
<path d="" fill="#666665" transform="translate(0,0)"/>
<path d="" fill="#656363" transform="translate(0,0)"/>
<path d="" fill="#5C5959" transform="translate(0,0)"/>
<path d="" fill="#5D5B5A" transform="translate(0,0)"/>
<path d="" fill="#5B5A59" transform="translate(0,0)"/>
<path d="" fill="#5C5C5A" transform="translate(0,0)"/>
<path d="" fill="#5E5D5E" transform="translate(0,0)"/>
<path d="" fill="#5A5B5B" transform="translate(0,0)"/>
<path d="" fill="#5D5B5A" transform="translate(0,0)"/>
<path d="" fill="#666464" transform="translate(0,0)"/>
<path d="" fill="#5D5D5B" transform="translate(0,0)"/>
<path d="" fill="#5D5B5A" transform="translate(0,0)"/>
<path d="" fill="#5C5C5B" transform="translate(0,0)"/>
<path d="" fill="#5B5A59" transform="translate(0,0)"/>
<path d="" fill="#5A5B5A" transform="translate(0,0)"/>
<path d="" fill="#5E5E5D" transform="translate(0,0)"/>
<path d="" fill="#595856" transform="translate(0,0)"/>
<path d="" fill="#5E5C5C" transform="translate(0,0)"/>
<path d="" fill="#5E5B5C" transform="translate(0,0)"/>
<path d="" fill="#5D5B5C" transform="translate(0,0)"/>
<path d="" fill="#5C5A5B" transform="translate(0,0)"/>
<path d="" fill="#5F5E5C" transform="translate(0,0)"/>
<path d="" fill="#5D5C5C" transform="translate(0,0)"/>
<path d="" fill="#575757" transform="translate(0,0)"/>
<path d="" fill="#5B5C5C" transform="translate(0,0)"/>
<path d="" fill="#5C5A5B" transform="translate(0,0)"/>
<path d="" fill="#5E5C5C" transform="translate(0,0)"/>
<path d="" fill="#5D5B5B" transform="translate(0,0)"/>
<path d="" fill="#5C5B59" transform="translate(0,0)"/>
<path d="" fill="#5B5958" transform="translate(0,0)"/>
<path d="" fill="#5A5959" transform="translate(0,0)"/>
<path d="" fill="#575757" transform="translate(0,0)"/>
<path d="" fill="#585658" transform="translate(0,0)"/>
<path d="" fill="#585755" transform="translate(0,0)"/>
<path d="" fill="#515152" transform="translate(0,0)"/>
<path d="" fill="#575555" transform="translate(0,0)"/>
<path d="" fill="#393939" transform="translate(0,0)"/>
</svg>
