<?xml version="1.0" encoding="UTF-8"?>
<svg version="1.1" xmlns="http://www.w3.org/2000/svg" width="512" height="512">
<path d="M0 0 C1.02609375 0.20399414 2.0521875 0.40798828 3.109375 0.61816406 C44.75333436 9.09251243 82.93620923 26.22459797 116 53 C116.54446777 53.44005371 117.08893555 53.88010742 117.64990234 54.33349609 C131.69887731 65.79310035 145.01964285 78.54180064 156 93 C156.70898438 93.90363281 157.41796875 94.80726562 158.1484375 95.73828125 C193.07319869 141.01792778 211.49396981 195.75806641 211.375 252.8125 C211.37418427 254.29126114 211.37418427 254.29126114 211.37335205 255.79989624 C211.2171135 317.62849021 188.62284972 378.95417037 146.3125 424.50390625 C144.26342081 426.71566572 142.27800519 428.96422276 140.3125 431.25 C134.28423079 438.14544483 127.75391595 444.0012603 120.59375 449.71386719 C118.92100603 451.06374697 117.27241688 452.43966483 115.625 453.8203125 C79.25597605 484.03641959 33.64304805 501.90386958 -13 508 C-13.98527931 508.12882568 -13.98527931 508.12882568 -14.99046326 508.26025391 C-20.56011194 508.93956379 -26.05216301 509.17377188 -31.66015625 509.203125 C-32.55942337 509.21013931 -33.45869049 509.21715363 -34.38520813 509.22438049 C-37.27769012 509.24181325 -40.16996737 509.2482344 -43.0625 509.25 C-44.54438812 509.25101212 -44.54438812 509.25101212 -46.05621338 509.25204468 C-60.90948128 509.23591391 -75.37402447 508.83472515 -90 506 C-90.92280762 505.82307617 -91.84561523 505.64615234 -92.79638672 505.46386719 C-118.75227631 500.32505369 -143.66260919 491.46575346 -167 479 C-167.99725098 478.47237061 -167.99725098 478.47237061 -169.01464844 477.93408203 C-178.9047199 472.66711004 -188.0719055 466.76378467 -197 460 C-197.57991699 459.56429688 -198.15983398 459.12859375 -198.75732422 458.6796875 C-207.66170134 451.9590321 -215.97041748 444.74031506 -224 437 C-224.55606934 436.46584473 -225.11213867 435.93168945 -225.68505859 435.38134766 C-233.00429645 428.31413521 -239.73924508 421.03822061 -246 413 C-247.14662109 411.59621094 -247.14662109 411.59621094 -248.31640625 410.1640625 C-259.85475939 395.75501154 -269.24439285 379.7245651 -277 363 C-277.32806641 362.3090625 -277.65613281 361.618125 -277.99414062 360.90625 C-287.55014765 340.73448756 -293.64650426 319.86720331 -298 298 C-298.18079102 297.11844238 -298.36158203 296.23688477 -298.54785156 295.32861328 C-303.9675011 267.61082317 -303.62478886 234.64502208 -298 207 C-297.80664062 206.00194336 -297.61328125 205.00388672 -297.4140625 203.97558594 C-288.33067193 158.01194754 -267.70073677 114.76302783 -235.41796875 80.5703125 C-233.34725646 78.3691353 -231.38198793 76.12412901 -229.4375 73.8125 C-225.34269829 69.10927256 -220.69849124 65.086205 -216 61 C-214.93570346 60.05003284 -213.87192372 59.09948644 -212.80859375 58.1484375 C-199.98512673 46.78950447 -185.87694197 37.45007295 -171 29 C-170.34451172 28.62633301 -169.68902344 28.25266602 -169.01367188 27.86767578 C-157.74419866 21.50893789 -146.12774269 16.48660608 -134 12 C-132.90099365 11.58838623 -132.90099365 11.58838623 -131.77978516 11.16845703 C-118.1945336 6.14505164 -104.18454606 2.8491921 -90 0 C-89.10877441 -0.18224121 -88.21754883 -0.36448242 -87.29931641 -0.55224609 C-59.85185504 -5.87644966 -27.37025411 -5.57947404 0 0 Z M-99.6875 40.3125 C-119.39383455 60.94871604 -132.65978727 87.28302533 -142 114 C-125.03790386 118.27695465 -107.75038379 120.84407398 -90.375 122.75 C-89.27027344 122.87761719 -88.16554687 123.00523438 -87.02734375 123.13671875 C-75.88748084 124.28290118 -65.39425655 124 -54 124 C-54 88.03 -54 52.06 -54 15 C-70.89129905 15 -88.18297192 29.29322442 -99.6875 40.3125 Z M-36 16 C-36 51.64 -36 87.28 -36 124 C-17.86338319 124.09630427 -17.86338319 124.09630427 0.0625 122.8125 C1.25568848 122.68302979 2.44887695 122.55355957 3.67822266 122.42016602 C27.64412471 119.69972549 27.64412471 119.69972549 51 114 C44.6841506 93.19484904 34.18193983 72.26715361 21 55 C19.94232422 53.60974609 19.94232422 53.60974609 18.86328125 52.19140625 C4.57077639 34.10125198 -12.32943213 18.95882098 -36 16 Z M17 23 C17.804375 23.928125 18.60875 24.85625 19.4375 25.8125 C41.50201403 51.64035404 57.11229281 78.20648398 69 110 C88.44448262 104.38181957 106.62589953 97.48951494 125 89 C125 85.36673841 123.91197935 84.52718049 121.44580078 82.02880859 C120.92743652 81.52430176 120.40907227 81.01979492 119.875 80.5 C119.3372998 79.97100098 118.79959961 79.44200195 118.24560547 78.89697266 C112.22309843 73.08566018 105.71157359 67.98437105 99 63 C98.42491699 62.56945312 97.84983398 62.13890625 97.25732422 61.6953125 C73.36372639 43.89144621 46.0769594 29.93094378 17 23 Z M-197 69 C-197.83192871 69.69077637 -197.83192871 69.69077637 -198.68066406 70.39550781 C-200.54349123 71.94371532 -202.39781567 73.50158073 -204.25 75.0625 C-204.8289502 75.54517334 -205.40790039 76.02784668 -206.00439453 76.52514648 C-210.10588178 80.02007576 -213.60247567 83.82098336 -217 88 C-189.25242624 103.16202137 -189.25242624 103.16202137 -159 109 C-158.5875 107.82566406 -158.175 106.65132813 -157.75 105.44140625 C-147.43643242 76.49736656 -132.73432948 50.84739323 -111.3984375 28.57421875 C-108.915634 26.04824927 -108.915634 26.04824927 -107 23 C-136.59502116 23 -175.25342954 50.69057745 -197 69 Z M-231.359375 103.27490234 C-231.81828125 103.87254395 -232.2771875 104.47018555 -232.75 105.0859375 C-233.53080933 106.09732788 -233.53080933 106.09732788 -234.32739258 107.12915039 C-234.87935303 107.87028076 -235.43131348 108.61141113 -236 109.375 C-236.57451904 110.13868896 -237.14903809 110.90237793 -237.7409668 111.68920898 C-266.43844789 150.46819866 -281.00992094 196.15873498 -284 244 C-250.34 244 -216.68 244 -182 244 C-181.34 232.45 -180.68 220.9 -180 209 C-177.45426155 181.26484953 -172.204189 153.90084721 -165 127 C-165.96599121 126.67837891 -166.93198242 126.35675781 -167.92724609 126.02539062 C-210.9684176 111.6577799 -210.9684176 111.6577799 -225.37109375 102.8125 C-227.75505809 101.6233763 -229.35505841 101.3951356 -231.359375 103.27490234 Z M132.6171875 104.08984375 C114.4042198 113.12281655 95.76083982 121.02499983 76 126 C74.90631162 129.3042245 75.11744353 131.35937379 76.0390625 134.69140625 C76.28744873 135.62218994 76.53583496 136.55297363 76.79174805 137.51196289 C77.06672119 138.51864014 77.34169434 139.52531738 77.625 140.5625 C86.54184047 174.73633673 89.35020468 208.66939576 92 244 C125.33 244 158.66 244 193 244 C192.4048605 228.27992376 192.4048605 228.27992376 190.25 212.9375 C190.0744458 212.02887207 189.8988916 211.12024414 189.71801758 210.18408203 C187.89301981 201.00717861 185.68508437 191.96275549 183 183 C182.65509521 181.84612793 182.65509521 181.84612793 182.30322266 180.66894531 C173.88336196 153.24881672 159.79424896 122.36461572 139 102 C136.39163684 102 134.94966826 102.91374186 132.6171875 104.08984375 Z M-148 131 C-154.85305961 157.71237324 -160.61758833 184.46375352 -163 212 C-163.11085937 213.26070313 -163.22171875 214.52140625 -163.3359375 215.8203125 C-164.06650846 225.27824463 -164 234.45329543 -164 244 C-127.7 244 -91.4 244 -54 244 C-54 210.34 -54 176.68 -54 142 C-61.92 141.67 -69.84 141.34 -78 141 C-82.73090079 140.64167179 -87.41417409 140.26015528 -92.125 139.75 C-93.3094873 139.6250415 -94.49397461 139.50008301 -95.71435547 139.37133789 C-113.26895518 137.41788506 -130.6348256 134.18442559 -148 131 Z M46.65234375 132.953125 C33.05578041 135.58165636 19.50838672 137.70412632 5.75 139.25 C5.04060272 139.33254028 4.33120544 139.41508057 3.60031128 139.50012207 C-9.61701785 141.02374893 -22.65070778 141.44377949 -36 142 C-36 175.66 -36 209.32 -36 244 C0.3 244 36.6 244 74 244 C73.26379765 222.56511017 73.26379765 222.56511017 71.3125 201.3125 C71.2279657 200.61540924 71.1434314 199.91831848 71.05633545 199.20010376 C68.26940477 176.39110793 63.89870741 153.9437608 57 132 C53.40227844 131.90104339 50.17783048 132.24623257 46.65234375 132.953125 Z M-284 262 C-283.18563054 276.52581971 -283.18563054 276.52581971 -281.25 290.8125 C-280.98775635 292.32952515 -280.98775635 292.32952515 -280.72021484 293.87719727 C-273.33703102 335.23015708 -255.55669842 371.85036944 -230 405 C-224.50002135 403.37236404 -219.56177485 400.901539 -214.4375 398.375 C-198.45825489 390.64776934 -182.09067513 384.72893024 -165 380 C-165.21615967 379.12714355 -165.43231934 378.25428711 -165.6550293 377.35498047 C-175.08840392 338.99509587 -180.28046766 301.54924393 -182 262 C-215.66 262 -249.32 262 -284 262 Z M-164 262 C-164.01953893 276.64282908 -164.01953893 276.64282908 -163.1875 291.1875 C-163.09766846 292.24718994 -163.00783691 293.30687988 -162.9152832 294.39868164 C-160.48829568 321.76505825 -155.34429343 348.53620212 -148 375 C-141.55735144 374.36288642 -135.29026668 373.35402516 -128.9375 372.125 C-104.09772867 367.52009657 -79.27332137 365.94410164 -54 364 C-54 330.34 -54 296.68 -54 262 C-90.3 262 -126.6 262 -164 262 Z M-36 262 C-36 295.66 -36 329.32 -36 364 C-19.83 365.32 -3.66 366.64 13 368 C24.0308596 369.66055951 34.94742383 371.32634352 45.85205078 373.59277344 C46.73747559 373.77614258 47.62290039 373.95951172 48.53515625 374.1484375 C49.30351807 374.31263184 50.07187988 374.47682617 50.86352539 374.64599609 C53.29676518 375.10897771 53.29676518 375.10897771 57 375 C63.56775674 352.61373128 67.9130714 330.11824806 71 307 C71.11472656 306.17193848 71.22945313 305.34387695 71.34765625 304.49072266 C73.29002293 290.31328993 73.46686232 276.39471741 74 262 C37.7 262 1.4 262 -36 262 Z M92 262 C91.01 275.2 90.02 288.4 89 302 C86.219955 326.42468105 82.47574282 351.19715023 75.53540039 374.85668945 C74.8788232 377.11689893 74.8788232 377.11689893 75 380 C75.77786865 380.24532471 76.5557373 380.49064941 77.35717773 380.7434082 C94.51949794 386.19882169 111.03238885 392.22498372 127.39697266 399.79980469 C131.24629792 401.57463896 135.12172899 403.28954606 139 405 C147.90850906 393.81125254 155.90896995 382.42508788 163 370 C163.60303955 368.9486084 163.60303955 368.9486084 164.21826172 367.87597656 C177.10977718 345.15501282 184.8677736 320.51838992 190 295 C190.21527344 293.99324219 190.43054688 292.98648437 190.65234375 291.94921875 C192.59409877 281.92862897 192.50373651 272.42153335 193 262 C159.67 262 126.34 262 92 262 Z M-36 382 C-36 417.97 -36 453.94 -36 491 C-9.41586928 485.68317386 9.91833475 468.65482813 24.71875 446.4921875 C25.48188453 445.32990496 26.24230452 444.16583557 27 443 C27.36738281 442.43571289 27.73476563 441.87142578 28.11328125 441.29003906 C43.63580605 418.00251469 43.63580605 418.00251469 51 392 C22.25195618 386.4044757 -6.637349 382 -36 382 Z M-141 392 C-140.38122644 397.33162428 -138.65372361 401.79874214 -136.5625 406.6875 C-136.21195557 407.51185547 -135.86141113 408.33621094 -135.50024414 409.18554688 C-127.51723318 427.58990162 -117.51637001 444.34944953 -105 460 C-104.40316406 460.75410156 -103.80632812 461.50820313 -103.19140625 462.28515625 C-90.82222282 477.20529837 -73.27091045 488.59113619 -54 491 C-54 455.03 -54 419.06 -54 382 C-83.16280107 382 -112.55707259 385.7090937 -141 392 Z M69 397 C68.63201294 397.97102661 68.63201294 397.97102661 68.2565918 398.96166992 C57.07838707 428.23251263 43.26760614 453.64015899 21.98046875 476.7734375 C20.19604427 478.7795952 18.57320055 480.82630334 17 483 C22.71427471 482.38966358 27.78219637 480.92335304 33.1875 479 C34.05753662 478.69094727 34.92757324 478.38189453 35.82397461 478.06347656 C64.48362998 467.6624003 90.21546192 452.22694534 113 432 C113.5671875 431.50516113 114.134375 431.01032227 114.71875 430.50048828 C116.42572266 429.01022114 118.12090714 427.50768584 119.8125 426 C120.33497314 425.54294678 120.85744629 425.08589355 121.39575195 424.61499023 C122.65623337 423.47192235 123.83621079 422.24137516 125 421 C125 420.01 125 419.02 125 418 C106.92940081 409.07828703 88.76452231 401.24923252 69 397 Z M-168.15234375 398.7734375 C-169.39516113 399.18207031 -170.63797852 399.59070313 -171.91845703 400.01171875 C-173.25846822 400.46517121 -174.59814333 400.91961793 -175.9375 401.375 C-176.60940369 401.6004248 -177.28130737 401.82584961 -177.97357178 402.05810547 C-191.08798312 406.46909955 -203.63130372 411.79686483 -216 418 C-214.40313205 421.92718107 -211.71519438 424.630157 -208.75 427.5625 C-208.21987305 428.0877124 -207.68974609 428.6129248 -207.14355469 429.15405273 C-183.6059116 452.02262288 -153.18401655 468.80220801 -122.4375 479.6875 C-120.96494751 480.21452515 -120.96494751 480.21452515 -119.46264648 480.75219727 C-118.54555908 481.06471436 -117.62847168 481.37723145 -116.68359375 481.69921875 C-115.87462646 481.97596436 -115.06565918 482.25270996 -114.23217773 482.5378418 C-111.78231518 483.04507026 -110.34552763 482.79861308 -108 482 C-108.44988281 481.58492188 -108.89976562 481.16984375 -109.36328125 480.7421875 C-131.5179373 459.51989173 -149.07260923 429.57481821 -158 400.3515625 C-158.495 399.18753906 -158.495 399.18753906 -159 398 C-162.83770952 396.72076349 -164.33587818 397.51628132 -168.15234375 398.7734375 Z " fill="#000000" transform="translate(301,3)"/>
</svg>
