<?xml version="1.0" encoding="UTF-8"?>
<svg id="Layer_1" data-name="Layer 1" xmlns="http://www.w3.org/2000/svg" viewBox="0 0 124.72 120.62">
  <defs>
    <style>
      .cls-1 {
        fill: #231f20;
      }

      .cls-1, .cls-2 {
        stroke: #231f20;
        stroke-miterlimit: 10;
        stroke-width: 2px;
      }

      .cls-2 {
        fill: none;
      }
    </style>
  </defs>
  <g>
    <path class="cls-2" d="M14.93,64.13c-.02-.54-.03-1.09-.03-1.64,0-17.59,9.36-33,23.37-41.51"/>
    <path class="cls-2" d="M88.15,104.28c-7.24,4.29-15.69,6.75-24.71,6.75s-17.77-2.55-25.09-6.98"/>
    <path class="cls-2" d="M86.28,19.65c15.3,8.17,25.7,24.29,25.7,42.84,0,.29,0,.58,0,.87"/>
  </g>
  <path class="cls-2" d="M54.51,17.88c0,4.58-3.71,8.29-8.29,8.29-3.43,0-6.38-2.09-7.64-5.06-.42-.99-.65-2.08-.65-3.23,0-4.58,3.71-8.29,8.29-8.29s8.29,3.71,8.29,8.29Z"/>
  <path class="cls-2" d="M40.39,98.6c0,4.58-3.71,8.29-8.29,8.29-3.43,0-6.38-2.09-7.64-5.06-.42-.99-.65-2.08-.65-3.23,0-4.58,3.71-8.29,8.29-8.29s8.29,3.71,8.29,8.29Z"/>
  <path class="cls-2" d="M119.38,71.65c0,4.58-3.71,8.29-8.29,8.29-3.43,0-6.38-2.09-7.64-5.06-.42-.99-.65-2.08-.65-3.23,0-4.58,3.71-8.29,8.29-8.29s8.29,3.71,8.29,8.29Z"/>
  <path class="cls-1" d="M86.28,17.88c0,4.58-3.71,8.29-8.29,8.29-3.43,0-6.38-2.09-7.64-5.06-.42-.99-.65-2.08-.65-3.23,0-4.58,3.71-8.29,8.29-8.29s8.29,3.71,8.29,8.29Z"/>
  <path class="cls-1" d="M101.64,97.34c0,4.58-3.71,8.29-8.29,8.29-3.43,0-6.38-2.09-7.64-5.06-.42-.99-.65-2.08-.65-3.23,0-4.58,3.71-8.29,8.29-8.29s8.29,3.71,8.29,8.29Z"/>
  <path class="cls-1" d="M23.81,72.75c0,4.58-3.71,8.29-8.29,8.29-3.43,0-6.38-2.09-7.64-5.06-.42-.99-.65-2.08-.65-3.23,0-4.58,3.71-8.29,8.29-8.29s8.29,3.71,8.29,8.29Z"/>
</svg>