<?xml version="1.0" encoding="UTF-8"?>
<svg id="Layer_1" data-name="Layer 1" xmlns="http://www.w3.org/2000/svg" viewBox="0 0 157.87 120.62">
  <defs>
    <style>
      .cls-1 {
        fill: none;
      }

      .cls-1, .cls-2 {
        stroke: #231f20;
        stroke-miterlimit: 10;
        stroke-width: 2px;
      }
    </style>
  </defs>
  <path class="cls-2" d="M64.88,61.34s-10.16,46.99-24.84-.38c-.54-1.75-2.49-10.37-3.49-23.98-.58-7.87-9.47-12.11-14.58-11.25-2.74.46-11.98,1.57-13.05,15.13s7.9,44.89,18.48,56.16c10.58,11.28,29.66,21.1,50.42-2.03"/>
  <path class="cls-1" d="M40.51,61.83c10.22-38.47,18.92-22.48,24.37-.49,2.86,11.55,6.98,22.02,10.5,29.33,3.6,7.47,13,20.36,30.52,20.37,17.52,0,25.76-15.03,29.98-21.58,12.68-19.73,26.37-72.88-4.53-63.04"/>
  <path class="cls-2" d="M82.65,30.52s11.09-24.12,29.43-18.94c18.34,5.18,26.27,27.92,26.27,27.92,0,0,2.97,9.15-4.49,14.77-7.46,5.62-13.79,3.84-16.86,0-3.3-4.14-14.88-36.87-24.69,6.43"/>
  <path class="cls-1" d="M26.79,25.74s9.12-16.16,26.64-16.15,25.62,13.47,29.22,20.93c3.52,7.31,6.18,16.19,9.05,27.74,5.45,21.98,14.14,43.72,26.79-2.42"/>
</svg>