<?xml version="1.0" encoding="UTF-8"?>
<svg id="Layer_1" data-name="Layer 1" xmlns="http://www.w3.org/2000/svg" viewBox="0 0 250 250">
  <defs>
    <style>
      .cls-1 {
        fill: #fff;
      }

      .cls-2 {
        fill: #939598;
        opacity: .57;
      }
    </style>
  </defs>
  <rect class="cls-2" x="198.04" y="23.16" width="44.76" height="44.42"/>
  <polygon class="cls-2" points="238.31 82.26 197.99 82.26 197.99 102.6 197.99 147.41 197.99 195.02 183.95 167.98 134.05 71.84 110.86 27.51 113.12 23.16 108.59 23.16 106.38 27.41 83.33 71.84 33.43 167.98 13.87 205.25 10 212.79 2.72 226.74 2.67 226.84 13.87 226.84 53.18 226.84 60.52 212.79 88.62 159.22 106.38 124.8 108.59 120.52 133.23 167.98 106.55 167.98 90.29 212.69 90.25 212.79 152.22 212.79 156.66 212.79 163.93 226.74 163.99 226.84 200.31 226.84 203.3 226.84 212.68 226.84 214.64 226.84 242.8 226.84 242.8 147.41 242.8 102.6 242.8 82.26 238.31 82.26"/>
  <rect class="cls-1" x="202.52" y="23.16" width="44.76" height="44.42"/>
  <polygon class="cls-1" points="242.85 82.26 202.52 82.26 202.52 102.6 202.52 147.41 202.52 195.02 188.48 167.98 138.58 71.84 113.12 23.16 110.91 27.41 87.86 71.84 37.96 167.98 18.4 205.25 14.53 212.79 7.25 226.74 7.2 226.84 18.4 226.84 57.71 226.84 65.05 212.79 93.16 159.22 110.91 124.8 113.12 120.52 137.76 167.98 111.08 167.98 94.82 212.69 94.79 212.79 156.75 212.79 161.19 212.79 168.47 226.74 168.52 226.84 204.84 226.84 207.83 226.84 217.21 226.84 219.17 226.84 247.33 226.84 247.33 147.41 247.33 102.6 247.33 82.26 242.85 82.26"/>
</svg>