<?xml version="1.0" encoding="UTF-8"?>
<svg id="Layer_1" data-name="Layer 1" xmlns="http://www.w3.org/2000/svg" viewBox="0 0 250 250">
  <defs>
    <style>
      .cls-1 {
        fill: #fff;
      }
    </style>
  </defs>
  <rect class="cls-1" x="201.54" y="21.42" width="45.52" height="45.18"/>
  <polygon class="cls-1" points="242.56 81.53 201.54 81.53 201.54 102.21 201.54 147.79 201.54 196.22 187.26 168.71 136.5 70.93 110.61 21.42 108.37 25.74 84.92 70.93 34.17 168.71 14.28 206.62 10.34 214.29 2.94 228.48 2.88 228.58 14.28 228.58 54.26 228.58 61.72 214.29 90.31 159.8 108.36 124.8 110.61 120.44 135.68 168.71 108.54 168.71 92 214.18 91.97 214.29 154.99 214.29 159.5 214.29 166.9 228.48 166.96 228.58 203.9 228.58 206.94 228.58 216.49 228.58 218.48 228.58 247.12 228.58 247.12 147.79 247.12 102.21 247.12 81.53 242.56 81.53"/>
</svg>