<?xml version="1.0" encoding="UTF-8"?>
<svg id="Layer_1" data-name="Layer 1" xmlns="http://www.w3.org/2000/svg" viewBox="0 0 91.01 120.62">
  <defs>
    <style>
      .cls-1, .cls-2, .cls-3 {
        stroke: #000;
      }

      .cls-1, .cls-2, .cls-3, .cls-4, .cls-5, .cls-6 {
        stroke-width: 2px;
      }

      .cls-1, .cls-2, .cls-5, .cls-6 {
        stroke-linecap: round;
      }

      .cls-1, .cls-3, .cls-4, .cls-5, .cls-6 {
        fill: none;
      }

      .cls-1, .cls-3, .cls-4, .cls-6 {
        stroke-linejoin: round;
      }

      .cls-2, .cls-5 {
        stroke-miterlimit: 10;
      }

      .cls-4, .cls-6 {
        stroke: #ef4136;
      }

      .cls-5 {
        stroke: #fff;
      }
    </style>
  </defs>
  <g>
    <g>
      <path class="cls-4" d="M62.19,111.03H30.16c-12.33,0-22.33-8.69-22.33-19.41V29h4.99c15.58,0,17.34-.14,17.29-14.87l.05-4.54h32.03c12.33,0,22.33,8.69,22.33,19.41v62.62c0,10.72-10,19.41-22.33,19.41Z"/>
      <line class="cls-6" x1="30.16" y1="9.59" x2="7.98" y2="28.86"/>
    </g>
    <g>
      <path class="cls-3" d="M62.19,111.03H30.16c-12.33,0-22.33-8.69-22.33-19.41V29h4.99c15.58,0,17.34-.14,17.29-14.87l.05-4.54h32.03c12.33,0,22.33,8.69,22.33,19.41v62.62c0,10.72-10,19.41-22.33,19.41Z"/>
      <line class="cls-1" x1="30.16" y1="9.59" x2="7.98" y2="28.86"/>
    </g>
    <rect class="cls-2" x="48.9" y="22.99" width="21.03" height="18.36" rx="9.18" ry="9.18"/>
  </g>
  <rect class="cls-2" x="25.1" y="54.25" width="42.15" height="35.18" rx="6.75" ry="6.75"/>
  <line class="cls-5" x1="46.18" y1="54.37" x2="46.18" y2="88.57"/>
  <line class="cls-5" x1="25.62" y1="77.7" x2="66.43" y2="77.7"/>
  <line class="cls-5" x1="25.62" y1="65.97" x2="66.43" y2="65.97"/>
</svg>