<?xml version="1.0" encoding="UTF-8"?>
<svg id="Layer_1" data-name="Layer 1" xmlns="http://www.w3.org/2000/svg" viewBox="0 0 939 170.79">
  <defs>
    <style>
      .cls-1 {
        fill: #fff;
      }
    </style>
  </defs>
  <polygon class="cls-1" points="162.76 148.19 147.6 118.98 108.51 43.66 88.56 5.52 68.77 43.66 29.67 118.98 14.35 148.19 11.32 154.09 5.57 165.1 14.35 165.1 45.15 165.1 50.9 154.09 72.92 112.12 88.56 81.8 107.87 118.98 86.96 118.98 74.2 154.09 126.22 154.09 131.96 165.1 162.76 165.1 171.7 165.1 165.96 154.09 162.76 148.19"/>
  <polygon class="cls-1" points="187.66 67.92 187.66 103.03 187.66 165.26 222.76 165.26 222.76 103.03 222.76 67.92 222.76 51.98 187.66 51.98 187.66 67.92"/>
  <path class="cls-1" d="M375.8,85.31c-1.28-1.44-2.71-3.03-4.15-4.47,2.55-3.99,4.63-8.3,6.06-13.09,1.12-4.31,1.92-8.78,1.92-13.4,0-26.81-22.02-48.83-48.83-48.83h-92.08v159.58h99.74c26.81,0,48.67-21.86,48.67-48.67,0-4.63-.64-9.1-1.91-13.4-1.92-6.54-5.11-12.61-9.42-17.71ZM338.46,130h-64.47V40.79h56.81c7.34,0,13.56,6.06,13.56,13.56s-6.22,13.4-13.56,13.4h-22.8l-12.77,35.27h43.23c7.34,0,13.4,6.06,13.4,13.4s-6.06,13.56-13.4,13.56Z"/>
  <polygon class="cls-1" points="744.43 85.31 735.5 51.48 723.37 5.52 675.33 100.91 627.3 5.52 615.17 51.48 606.23 85.31 601.13 104.78 585.17 165.1 601.13 165.1 621.55 165.1 636.24 109.25 641.02 91.06 675.33 165.22 709.48 91.06 714.27 109.25 729.11 165.1 749.54 165.1 765.5 165.1 749.54 104.78 744.43 85.31"/>
  <path class="cls-1" d="M922.26,85.31c-9.1-10.69-22.5-17.55-37.5-17.55h-51.07c-7.34,0-13.4-6.06-13.4-13.4s6.06-13.56,13.4-13.56h51.07c.22,0,.43.02.64.03h46.17c-5.89-20.28-24.6-35.3-46.81-35.3h-51.07c-4.63,0-9.1.8-13.4,2.07-20.27,5.75-35.11,24.58-35.11,46.76,0,4.63.64,9.1,1.76,13.4,1.92,6.54,5.11,12.61,9.42,17.55,6.22,7.5,14.52,13.09,23.94,15.8,4.31,1.12,8.78,1.91,13.4,1.91h51.07c7.5,0,13.56,6.06,13.56,13.4s-6.06,13.56-13.56,13.56h-51.07c-.5,0-.99-.04-1.47-.1h-45.22c4.61,16,17.27,28.69,33.29,33.29,4.31,1.28,8.78,1.91,13.4,1.91h51.07c26.81,0,48.67-21.86,48.67-48.67,0-4.63-.64-9.1-1.92-13.4-1.91-6.54-5.11-12.61-9.26-17.71Z"/>
  <rect class="cls-1" x="187.66" y="5.68" width="35.07" height="34.8"/>
  <path class="cls-1" d="M563.47,154.09l-3.19-5.9-15.16-29.2-39.1-75.32-19.95-38.14-19.79,38.14-39.1,75.32-15.32,29.2-3.03,5.9-5.74,11.01h39.58l5.74-11.01h75.32l5.74,11.01h39.74l-5.75-11.01ZM484.48,118.98h0s-17.64,0-17.64,0l3.6-6.87,15.64-30.32,19.31,37.18h-20.9Z"/>
</svg>